<?xml version="1.0" encoding="utf-8"?>
<!-- Generator: Adobe Illustrator 19.0.0, SVG Export Plug-In . SVG Version: 6.00 Build 0)  -->
<svg version="1.1" id="Calque_1" xmlns="http://www.w3.org/2000/svg" xmlns:xlink="http://www.w3.org/1999/xlink" x="0px" y="0px"
	 viewBox="0 0 262.7 77.9" style="enable-background:new 0 0 262.7 77.9;" xml:space="preserve">
<style type="text/css">
	.st0{fill:#D93472;}
	.st1{fill:#ECA8BB;}
	.st2{fill:none;}
	.st3{fill:#00ADBC;}
</style>
<path id="XMLID_159_" class="st0" d="M62,32.3v27c0,0-3.8,0-9,0H26c-0.3,0-0.6,0-0.8,0C15.6,58.9,8,51,8,41.3c0-9.9,8-17.9,17.8-18
	H35v9h-9c-5,0-9,4-9,9c0,5,4,9,9,9h27l0-18H62z"/>
<path id="XMLID_158_" class="st1" d="M62,23.2v0.2c0-2.5-2-4.5-4.5-4.5s-4.5,2-4.5,4.5c0-5-4-9-9-9s-9,4-9,9h-9c0-0.3,0-0.6,0-0.9
	c0.4-9.5,8.3-17.1,18-17.1C53.9,5.3,61.9,13.3,62,23.2z"/>
<path id="XMLID_156_" class="st0" d="M87.2,51.4c-2.2,0.3-4,0.5-5.3,0.5c-2.6,0-3.9-1.5-3.9-4.3v-8.5h8.6v-6.8h-9v-9h-9v9h-4.5v6.8
	h4.5l0.1,9.3c0,7.4,4,11.5,10.8,11.5c2.8,0,5.7-0.4,8.5-1.1L87.2,51.4z"/>
<path id="XMLID_154_" class="st0" d="M111.9,51.4c-2.2,0.3-4,0.5-5.3,0.5c-2.6,0-3.9-1.5-3.9-4.3v-8.5h8.6v-6.8h-9v-9h-9v9H89v6.8
	h4.5l0.1,9.3c0,7.4,4,11.5,10.8,11.5c2.8,0,5.7-0.4,8.5-1.1L111.9,51.4z"/>
<path id="XMLID_150_" class="st0" d="M127.3,31.2c-4.1,0-7.4,1.3-9.8,3.9c-2.4,2.6-3.6,6-3.8,10.3c0,4.5,1.3,8,3.8,10.7
	c2.5,2.6,5.5,3.8,9,3.8c3,0,5.1-1,7.4-2.8v2.3h9v-27C135.2,31.4,130.4,31.2,127.3,31.2z M134,50.3c-1.8,1.6-3.4,2.1-5.4,2.1
	c-3.6,0-6.1-2.8-6.1-6.9c0-4.3,2.2-7.1,6.4-7.1c1.6,0,3,0.4,5.1,0.6V50.3z"/>
<path id="XMLID_148_" class="st0" d="M160.9,42.4c-3.6-0.7-6-1-6-2.6c0-1.3,1.1-1.9,3.2-1.9c2.4,0,5.7,0.6,9.9,1.9l1.7-6.7
	c-3.7-1.3-7.6-2-11.7-2c-7.5,0-12.1,3.4-12.1,9.3c0,4.8,2.9,7,9.4,8.3c0.7,0.2,2.8,0.5,3.5,0.7c1.4,0.3,2.6,0.8,2.6,1.8
	c0,1.1-1.3,1.7-3.8,1.7c-2.7,0-5.8-1.1-10.3-2.7l-2.3,6.8c4.4,1.6,8.7,2.8,12.7,2.8c7.6,0,12.3-3.1,12.3-9.1
	C170.2,45.8,167.2,43.7,160.9,42.4z"/>
<path id="XMLID_146_" class="st0" d="M172.2,23.3v36h9v-36H172.2z"/>
<path id="XMLID_142_" class="st0" d="M209.4,34.9c-2.8-2.6-6.5-4-11.1-4c-4.5,0-8.3,1.3-11.1,4c-2.9,2.6-4.2,6.1-4.2,10.4
	c0,4.4,1.4,7.9,4.2,10.6c2.8,2.7,6.6,4,11.1,4c4.6,0,8.3-1.3,11.1-4c2.9-2.7,4.3-6.3,4.3-10.6C213.6,41,212.2,37.5,209.4,34.9z
	 M198.3,52.3c-4,0-6.7-2.8-6.7-6.9c0-4,2.7-6.7,6.7-6.7s6.7,2.7,6.7,6.7C205,49.5,202.2,52.3,198.3,52.3z"/>
<path id="XMLID_140_" class="st0" d="M246.5,32.3l-3.7,15.3l-5.3-15.3h-6.8l-5.3,15.3l-3.7-15.3h-9l6.8,27h9l5.6-14.4l5.6,14.4h9
	l6.8-27H246.5z"/>
<line id="XMLID_139_" class="st2" x1="26" y1="32.3" x2="17" y2="32.3"/>
<path id="XMLID_137_" class="st0" d="M62,23.3c0,2.5-2,4.5-4.5,4.5s-4.5-2-4.5-4.5s2-4.5,4.5-4.5S62,20.8,62,23.3z"/>
<g id="XMLID_418_">
	<path id="XMLID_419_" class="st3" d="M71.6,65.9c-1.2-0.2-2-0.3-2.5-0.3c-1.8,0-2.8,1-2.8,2.4c0,0.8,0.2,1.4,0.7,1.8
		c0.5,0.5,1.1,0.7,1.9,0.7c0.6,0,1.5-0.1,2.6-0.3l0.4,1.9c-1.1,0.3-2.2,0.5-3.1,0.5c-1.4,0-2.6-0.4-3.5-1.2C64.4,70.4,64,69.4,64,68
		c0-1.3,0.4-2.4,1.3-3.2c0.9-0.8,2-1.2,3.5-1.2c1,0,2.1,0.1,3.1,0.4L71.6,65.9z"/>
	<path id="XMLID_421_" class="st3" d="M74.9,72.3h-2.3l3.8-8.6h2l3.8,8.6h-2.3l-0.6-1.4h-3.8L74.9,72.3z M76.2,69.1h2.4l-1.2-2.9
		L76.2,69.1z"/>
	<path id="XMLID_424_" class="st3" d="M89.4,66c-1.2-0.4-2.2-0.6-3-0.6c-0.8,0-1.2,0.3-1.2,0.8c0,0.3,0.2,0.5,0.6,0.6
		c0.2,0.1,0.6,0.2,1.3,0.3c1,0.2,1.7,0.5,2.2,0.9c0.5,0.4,0.7,0.9,0.7,1.7c0,1.8-1.4,2.8-3.6,2.8c-1.2,0-2.5-0.3-3.8-0.7l0.5-1.9
		c1.2,0.5,2.3,0.7,3.3,0.7s1.4-0.2,1.4-0.7c0-0.2-0.1-0.4-0.3-0.5c-0.1-0.1-0.3-0.2-0.5-0.2c-0.1,0-0.5-0.1-0.6-0.2
		c-0.1,0-0.5-0.1-0.7-0.1c-1-0.2-1.7-0.5-2.2-0.9c-0.4-0.4-0.7-0.9-0.7-1.7c0-0.8,0.3-1.5,0.9-2c0.6-0.5,1.5-0.7,2.6-0.7
		c1.2,0,2.4,0.2,3.5,0.6L89.4,66z"/>
	<path id="XMLID_426_" class="st3" d="M95.5,72.3h-2.1v-6.7h-2.9v-1.9h7.9v1.9h-2.9V72.3z"/>
	<path id="XMLID_428_" class="st3" d="M105.1,67.1v1.8h-3.8v1.5h4.4v1.9h-6.5v-8.6h6.5v1.9h-4.4v1.5H105.1z"/>
	<path id="XMLID_430_" class="st3" d="M107.1,72.3v-8.6h2.1v6.7h4.2v1.9H107.1z"/>
	<path id="XMLID_432_" class="st3" d="M122.7,72.3h-1.9l-4-5v5h-2.1v-8.6h2l4,5v-5h2.1V72.3z"/>
	<path id="XMLID_434_" class="st3" d="M132.3,68.4c0,1.3-0.4,2.3-1.1,3c-0.7,0.7-1.7,1.1-2.9,1.1c-1.2,0-2.2-0.4-2.9-1.1
		c-0.7-0.7-1.1-1.7-1.1-3v-4.7h2.1v4.7c0,1.3,0.7,2.1,1.9,2.1s1.9-0.8,1.9-2.1v-4.7h2.1V68.4z"/>
	<path id="XMLID_436_" class="st3" d="M138.1,63.6c1.4,0,2.5,0.4,3.3,1.2c0.9,0.8,1.3,1.9,1.3,3.2s-0.4,2.4-1.3,3.2
		c-0.8,0.8-2,1.2-3.3,1.2s-2.5-0.4-3.3-1.2c-0.8-0.8-1.3-1.9-1.3-3.2s0.4-2.4,1.3-3.2C135.6,64,136.7,63.6,138.1,63.6z M138.1,70.5
		c0.7,0,1.3-0.2,1.7-0.7c0.5-0.5,0.7-1.1,0.7-1.8c0-0.7-0.2-1.3-0.7-1.8c-0.4-0.5-1-0.7-1.7-0.7c-0.7,0-1.3,0.2-1.7,0.7
		c-0.4,0.5-0.7,1.1-0.7,1.8c0,0.7,0.2,1.4,0.7,1.8C136.8,70.3,137.4,70.5,138.1,70.5z"/>
	<path id="XMLID_439_" class="st3" d="M146.3,72.3l-3.6-8.6h2.4l2.3,5.7l2.3-5.7h2.4l-3.6,8.6H146.3z"/>
	<path id="XMLID_441_" class="st3" d="M156.7,63.6c1.4,0,2.5,0.4,3.3,1.2c0.9,0.8,1.3,1.9,1.3,3.2s-0.4,2.4-1.3,3.2
		c-0.8,0.8-2,1.2-3.3,1.2s-2.5-0.4-3.3-1.2c-0.8-0.8-1.3-1.9-1.3-3.2s0.4-2.4,1.3-3.2C154.2,64,155.3,63.6,156.7,63.6z M156.7,70.5
		c0.7,0,1.3-0.2,1.7-0.7c0.5-0.5,0.7-1.1,0.7-1.8c0-0.7-0.2-1.3-0.7-1.8c-0.4-0.5-1-0.7-1.7-0.7c-0.7,0-1.3,0.2-1.7,0.7
		c-0.4,0.5-0.7,1.1-0.7,1.8c0,0.7,0.2,1.4,0.7,1.8C155.4,70.3,156,70.5,156.7,70.5z"/>
	<path id="XMLID_444_" class="st3" d="M173.9,70c0,1.6-1.2,2.4-3.3,2.4c-1.2,0-2.5,0-3.9-0.1v-8.6c1.4,0,2.6-0.1,3.7-0.1
		c1.9,0,3.1,0.8,3.1,2.3c0,1-0.6,1.8-1.5,2C173.2,68.2,173.9,69,173.9,70z M168.9,65.4v1.9h1.5c0.7,0,1.2-0.4,1.2-1
		c0-0.6-0.5-0.9-1.3-0.9H168.9z M171.8,69.7c0-0.6-0.5-0.9-1.2-0.9h-1.7v1.8c0.1,0,0.4,0,0.7,0s0.6,0,0.8,0
		C171.3,70.7,171.8,70.3,171.8,69.7z"/>
	<path id="XMLID_448_" class="st3" d="M181,67.1v1.8h-3.8v1.5h4.4v1.9h-6.5v-8.6h6.5v1.9h-4.4v1.5H181z"/>
	<path id="XMLID_450_" class="st3" d="M186,69.9h-0.9v2.5H183v-8.6c1.2,0,2.3-0.1,3.4-0.1c2.3,0,3.6,1.1,3.6,3
		c0,1.1-0.5,2.1-1.5,2.6l2.1,3h-2.5l-1.6-2.5H186z M186.5,68.1c0.9,0,1.4-0.5,1.4-1.3c0-0.8-0.5-1.2-1.5-1.2c-0.1,0-0.3,0-0.6,0
		h-0.6v2.6H186.5z"/>
	<path id="XMLID_453_" class="st3" d="M193.2,72.3h-2.3l3.8-8.6h2l3.8,8.6h-2.3l-0.6-1.4h-3.8L193.2,72.3z M194.5,69.1h2.4l-1.2-2.9
		L194.5,69.1z"/>
	<path id="XMLID_456_" class="st3" d="M204.5,69.9h-0.9v2.5h-2.1v-8.6c1.2,0,2.3-0.1,3.4-0.1c2.3,0,3.6,1.1,3.6,3
		c0,1.1-0.5,2.1-1.5,2.6l2.1,3h-2.5l-1.6-2.5H204.5z M205,68.1c0.9,0,1.4-0.5,1.4-1.3c0-0.8-0.5-1.2-1.5-1.2c-0.1,0-0.3,0-0.6,0
		h-0.6v2.6H205z"/>
	<path id="XMLID_459_" class="st3" d="M216.7,64.8c0.9,0.8,1.3,1.9,1.3,3.2c0,1.3-0.4,2.4-1.2,3.2c-0.8,0.8-1.9,1.2-3.2,1.2
		c-1,0-2.2,0-3.4-0.1v-8.6c1.2-0.1,2.3-0.1,3.2-0.1C214.7,63.6,215.8,64,216.7,64.8z M215.1,69.8c0.4-0.5,0.6-1.1,0.6-1.8
		c0-0.7-0.2-1.3-0.7-1.8c-0.4-0.5-1-0.7-1.7-0.7c-0.5,0-0.9,0-1.2,0v4.9c0.3,0,0.7,0,1.3,0C214.2,70.5,214.7,70.3,215.1,69.8z"/>
	<path id="XMLID_462_" class="st3" d="M225.2,67.1v1.8h-3.8v1.5h4.4v1.9h-6.5v-8.6h6.5v1.9h-4.4v1.5H225.2z"/>
	<path id="XMLID_464_" class="st3" d="M235.2,72.3h-1.9l-4-5v5h-2.1v-8.6h2l4,5v-5h2.1V72.3z"/>
	<path id="XMLID_466_" class="st3" d="M245.1,71.6c-1.6,0.6-2.9,0.9-4,0.9c-1.4,0-2.5-0.4-3.4-1.2c-0.9-0.8-1.3-1.9-1.3-3.3
		c0-1.3,0.4-2.4,1.3-3.2c0.9-0.8,2-1.2,3.4-1.2c1.1,0,2.1,0.1,3.2,0.4l-0.4,1.9c-1.2-0.2-2.1-0.3-2.6-0.3c-0.8,0-1.5,0.2-2,0.7
		c-0.5,0.4-0.7,1-0.7,1.8c0,0.7,0.2,1.3,0.7,1.8c0.5,0.5,1,0.7,1.8,0.7c0.6,0,1.3-0.1,2.1-0.3V69h-2.7v-1.7h4.5V71.6z"/>
	<path id="XMLID_468_" class="st3" d="M248.2,72.3h-2.3l3.8-8.6h2l3.8,8.6h-2.3l-0.6-1.4h-3.8L248.2,72.3z M249.5,69.1h2.4l-1.2-2.9
		L249.5,69.1z"/>
</g>
<g id="XMLID_14_">
</g>
<g id="XMLID_15_">
</g>
<g id="XMLID_16_">
</g>
<g id="XMLID_17_">
</g>
<g id="XMLID_18_">
</g>
<g id="XMLID_19_">
</g>
</svg>
