<?xml version="1.0" encoding="utf-8"?>
<!-- Generator: Adobe Illustrator 19.0.0, SVG Export Plug-In . SVG Version: 6.00 Build 0)  -->
<svg version="1.1" id="Calque_1" xmlns="http://www.w3.org/2000/svg" xmlns:xlink="http://www.w3.org/1999/xlink" x="0px" y="0px"
	 viewBox="0 0 77.9 77.9" style="enable-background:new 0 0 77.9 77.9;" xml:space="preserve">
<style type="text/css">
	.st0{fill:#87CDD6;}
	.st1{fill:#00ADBC;}
	.st2{fill:#D93472;}
	.st3{fill:#ECA8BB;}
	.st4{fill:none;}
</style>
<path id="XMLID_360_" d="M77.9,38.9c0,0.4,0,0.7,0,1.1c0,0.4,0,0.7,0,1.1c0,0.3,0,0.6-0.1,0.8c0,0.2,0,0.5-0.1,0.7
	c-0.1,0.9-0.2,1.9-0.4,2.8c-0.1,0.4-0.1,0.7-0.2,1.1c-0.1,0.7-0.3,1.4-0.5,2.2c-0.1,0.4-0.2,0.7-0.3,1.1c-0.1,0.4-0.2,0.7-0.3,1.1
	c-0.1,0.3-0.2,0.6-0.3,1c0,0,0,0.1,0,0.1c-0.5,1.4-1.1,2.8-1.7,4.1L21.9,3.9c0.7-0.3,1.3-0.6,2-0.9c0.7-0.3,1.4-0.6,2.1-0.8
	c2.8-1,5.7-1.6,8.6-2c0.4,0,0.7-0.1,1.1-0.1C42-0.4,48.5,0.6,54.5,3.2c1.2,0.5,2.3,1.1,3.4,1.7c0.8,0.5,1.7,1,2.5,1.5
	c2.2,1.4,4.2,3.1,6.1,5c1,1,1.8,1.9,2.7,3c0.6,0.8,1.2,1.5,1.8,2.3C75.6,23.4,77.9,31.2,77.9,38.9z"/>
<path id="XMLID_345_" class="st0" d="M73.9,56c-1.8,3.8-4.3,7.3-7.5,10.4c-15.2,15.2-39.9,15.2-55.1,0c-15.2-15.2-15.2-39.9,0-55.1
	c3.1-3.1,6.7-5.6,10.4-7.5L73.9,56z"/>
<path id="XMLID_339_" class="st1" d="M77.9,38.9c0,0.4,0,0.7,0,1.1c0,0.4,0,0.7,0,1.1c0,0.3,0,0.6-0.1,0.8c0,0.2,0,0.5-0.1,0.7
	c-0.1,0.9-0.2,1.9-0.4,2.8c-0.1,0.4-0.1,0.7-0.2,1.1c-0.1,0.7-0.3,1.4-0.5,2.2c-0.1,0.4-0.2,0.7-0.3,1.1c-0.1,0.4-0.2,0.7-0.3,1.1
	c-0.1,0.3-0.2,0.6-0.3,1c0,0,0,0.1,0,0.1c-0.5,1.4-1.1,2.8-1.7,4.1L21.9,3.9c0.7-0.3,1.3-0.6,2-0.9c0.7-0.3,1.4-0.6,2.1-0.8
	c2.8-1,5.7-1.6,8.6-2c0.4,0,0.7-0.1,1.1-0.1C42-0.4,48.5,0.6,54.5,3.2c1.2,0.5,2.3,1.1,3.4,1.7c0.8,0.5,1.7,1,2.5,1.5
	c2.2,1.4,4.2,3.1,6.1,5c1,1,1.8,1.9,2.7,3c0.6,0.8,1.2,1.5,1.8,2.3C75.6,23.4,77.9,31.2,77.9,38.9z"/>
<path id="XMLID_338_" class="st2" d="M56.3,50.2L38.9,67.6c0,0-2.4-2.4-5.8-5.8L15.8,44.4c-0.2-0.2-0.4-0.4-0.5-0.6
	c-5.9-6.4-5.7-16.4,0.5-22.6c6.4-6.4,16.7-6.4,23.1-0.1l5.9,5.9l-5.8,5.8L33.1,27c-3.2-3.2-8.4-3.2-11.6,0c-3.2,3.2-3.2,8.4,0,11.6
	L39,56l11.6-11.6L56.3,50.2z"/>
<path id="XMLID_337_" class="st3" d="M62.2,44.3L62.2,44.3c1.5-1.5,1.5-4.1-0.1-5.7c-1.6-1.6-4.2-1.6-5.8,0c3.2-3.2,3.2-8.4,0-11.6
	c-3.2-3.2-8.4-3.2-11.6,0l-5.8-5.8c0.2-0.2,0.4-0.4,0.6-0.5c6.4-5.9,16.4-5.7,22.6,0.5C68.5,27.6,68.5,37.9,62.2,44.3z"/>
<line id="XMLID_336_" class="st4" x1="33.1" y1="27" x2="27.3" y2="21.2"/>
<path id="XMLID_335_" class="st2" d="M62.1,44.4c-1.6,1.6-4.2,1.6-5.8,0c-1.6-1.6-1.6-4.2,0-5.8c1.6-1.6,4.2-1.6,5.8,0
	C63.7,40.2,63.7,42.8,62.1,44.4z"/>
<g id="XMLID_53_">
</g>
<g id="XMLID_54_">
</g>
<g id="XMLID_55_">
</g>
<g id="XMLID_56_">
</g>
<g id="XMLID_57_">
</g>
<g id="XMLID_58_">
</g>
</svg>
