<?xml version="1.0" encoding="utf-8"?>
<!-- Generator: Adobe Illustrator 19.0.0, SVG Export Plug-In . SVG Version: 6.00 Build 0)  -->
<svg version="1.1" id="Calque_1" xmlns="http://www.w3.org/2000/svg" xmlns:xlink="http://www.w3.org/1999/xlink" x="0px" y="0px"
	 viewBox="0 0 1032.7 546.8" style="enable-background:new 0 0 1032.7 546.8;" xml:space="preserve">
<style type="text/css">
	.st0{fill:#D93472;}
	.st1{fill:#ECA8BB;}
	.st2{fill:none;}
	.st3{fill:#FFFFFF;}
</style>
<path id="XMLID_9_" d="M197.8,104.1h-1.1c-0.6,0.1-1.3,0.2-1.9,0.4c-0.3,0.1-0.6,0.3-0.8,0.4c-0.3,0.1-0.6,0.3-0.8,0.5
	c-0.4,0.3-0.8,0.6-1.2,1.1c-0.3,0.4-0.6,0.8-0.8,1.3c-0.5,1-0.8,2.1-0.8,3.2c0,3.5,2.4,6.3,5.6,6.8h1.9c3.3-0.5,5.8-3.3,5.8-6.8
	C203.8,107.3,201.1,104.4,197.8,104.1z"/>
<path id="XMLID_86_" class="st0" d="M225.5,66.7c0,7-3.8,12.9-10,15.4c-7.6-3.4-17.6-4.7-27.1-4.7h11.9c5.7,0,9.5-3.1,9.5-7.9
	c0-4.7-3.6-7.1-10.7-7.1h-10.7v55.2c-5.3-0.1-10.9-0.3-16.8-0.6V49.2c11.1-0.4,20.9-0.6,29.5-0.6C216.5,48.6,225.5,55.2,225.5,66.7z
	"/>
<path id="XMLID_15_" class="st1" d="M439.8,57.8c-6.7-6.3-15.7-9.4-26.8-9.4c-2.6,0-5.5,0.1-8.5,0.1v15.1c2.1-0.1,5.1-0.2,9.2-0.2
	c5.6,0,10,1.8,13.6,5.4c3.5,3.5,5.3,8.2,5.3,14c0,5.9-1.7,10.7-5.1,14.4c-3.3,3.7-7.5,5.5-12.4,5.5c-0.9,0-1.8,0-2.6-0.1h-0.2
	c-0.1,0-0.3,0-0.4,0.1c-3.8,0.2-6.8,3.5-6.8,7.5c0,3.7,2.6,6.9,6.1,7.4c0.2,0.1,0.4,0.1,0.6,0.1h1c0.6,0.1,1.2,0.1,1.8,0.1
	c10.2,0,18.7-3.2,25.3-9.5c6.6-6.4,9.9-14.9,9.9-25.4C449.9,72.5,446.5,64.1,439.8,57.8z"/>
<path id="XMLID_65_" class="st0" d="M404.5,48.5v69.2c-5.3-0.1-10.8-0.4-16.7-0.7V49.2C393.9,48.9,399.5,48.7,404.5,48.5z"/>
<path id="XMLID_18_" class="st1" d="M525.2,76c-0.6,0.1-1.3,0.3-1.9,0.5c-0.6,0.3-1.1,0.6-1.6,1c-0.4,0.3-0.7,0.5-1,0.9
	c-0.2,0.2-0.4,0.5-0.5,0.7c-0.3,0.3-0.5,0.6-0.6,1c-0.2,0.3-0.3,0.6-0.4,1c-0.2,0.6-0.3,1.2-0.3,1.9c0,3.9,3,7,6.9,7.2h21V76H525.2z
	"/>
<polygon id="XMLID_27_" class="st0" points="516.9,63.9 516.9,102.4 551.4,102.4 551.4,117 500.2,117 500.2,49.2 551.4,49.2 
	551.4,63.9 "/>
<path id="XMLID_20_" class="st0" d="M602.6,49.2V117h16.7V64.1h33V49.2H602.6z M628.7,78.8c0,0-0.1,0-0.1,0h-0.1
	c-3.7,0.6-6.6,3.7-6.6,7.6c0,3.9,2.8,7.1,6.6,7.6c3.8-0.5,6.7-3.7,6.7-7.6C635.2,82.5,632.4,79.4,628.7,78.8z"/>
<path id="XMLID_137_" class="st1" d="M647.9,78.7V94h-19.5c0.1,0,0.1,0,0.2,0c3.8-0.5,6.7-3.7,6.7-7.6c0-3.9-2.8-7-6.6-7.6
	c0,0-0.1,0-0.1,0c-0.1,0-0.3,0-0.4,0H647.9z"/>
<path id="XMLID_22_" class="st0" d="M751.7,93.8v6.6c-6.4,1.5-12,2.3-16.8,2.3c-5.7,0-10.4-1.8-14-5.5c-3.5-3.7-5.3-8.5-5.3-14.4
	c0-5.9,2-10.6,5.9-14c3.9-3.6,9.1-5.4,15.4-5.4c4.4,0,11.4,0.8,20.8,2.4l2.9-14.9c-8.4-2.1-16.9-3.2-25.4-3.2
	c-11.3,0-20.3,3.2-27.2,9.7c-6.8,6.4-10.2,14.9-10.2,25.5c0,10.7,3.4,19.4,10.2,25.9c6.8,6.4,15.6,9.8,26.7,9.8
	c8.3,0,18.8-2.4,31.3-7.3V93.8H751.7z M759.6,76.9h-0.7c-3.7,0.2-6.6,3.2-6.6,6.9c0,3.6,2.8,6.6,6.2,6.9h1.4
	c3.2-0.3,5.8-2.9,6.1-6.1v-1.5C765.7,79.7,763,77.1,759.6,76.9z"/>
<path id="XMLID_33_" class="st1" d="M758.5,90.7h-28.4V76.9h28.7c-3.7,0.2-6.5,3.2-6.5,6.9C752.3,87.4,755,90.3,758.5,90.7z"/>
<path id="XMLID_24_" class="st0" d="M818.2,49.2V117H835V49.2H818.2z M863.3,91.6V117h16.9V91.6H863.3z M863.3,49.2v27.2h16.9V49.2
	H863.3z M850.7,80.7c-0.1-0.3-0.3-0.6-0.5-0.8c-0.1-0.3-0.3-0.6-0.6-0.8c-0.2-0.2-0.4-0.5-0.6-0.6c-1.2-1.1-2.8-1.8-4.4-1.9h-1.2
	c-4,0.3-7.1,3.5-7.1,7.6c0,3.8,2.8,6.9,6.4,7.5h2.4c2.6-0.4,4.7-2.1,5.7-4.3c0.4-0.8,0.6-1.5,0.7-2.4v-1.5
	C851.4,82.4,851.2,81.5,850.7,80.7z"/>
<path id="XMLID_96_" class="st1" d="M880.1,76.5v15.2h-35.1c3.4-0.5,6.1-3.3,6.4-6.8c0-0.3,0-0.5,0-0.8c0-0.3,0-0.5,0-0.8
	c-0.4-3.6-3.3-6.5-6.9-6.8H880.1z"/>
<path id="XMLID_26_" class="st1" d="M949.1,53.8c-0.5-0.8-1-1.5-1.7-2.2c-0.3-0.3-0.6-0.6-1-0.9c-0.4-0.3-0.8-0.5-1.2-0.7
	c-0.4-0.2-0.8-0.3-1.2-0.5c-0.5-0.2-1-0.3-1.5-0.3h-1.7c-0.5,0.1-1,0.1-1.5,0.3c-0.5,0.1-0.8,0.3-1.2,0.5c-0.5,0.2-0.8,0.5-1.2,0.7
	c-0.4,0.3-0.8,0.6-1.1,0.9c-1.4,1.3-2.3,3-2.5,5V117h16.9V56.6C949.8,55.6,949.5,54.7,949.1,53.8z"/>
<path id="XMLID_89_" class="st0" d="M203.8,110.9c0,3.5-2.5,6.4-5.8,6.8c-0.3,0.1-0.6,0.1-0.9,0.1c-0.4,0-0.7,0-1-0.1
	c-3.2-0.5-5.6-3.4-5.6-6.8c0-3.7,2.8-6.7,6.3-6.9c0.1,0,0.3,0,0.4,0c0.2,0,0.4,0,0.6,0h0.1C201.1,104.4,203.8,107.3,203.8,110.9z"/>
<path id="XMLID_57_" class="st0" d="M419.7,110.3c0,3.8-2.7,7-6.3,7.4c-0.3,0.1-0.7,0.1-1,0.1c-0.4,0-0.8,0-1.1-0.1
	c-3.5-0.5-6.1-3.7-6.1-7.4c0-4,3-7.3,6.8-7.5c0.1,0,0.2,0,0.4,0h0.2c0.2,0,0.4,0,0.6,0h0.1C416.9,103.2,419.7,106.4,419.7,110.3z"/>
<path id="XMLID_41_" class="st1" d="M228.2,98.5c0,12.3-9.8,19.4-25.7,19.4c-1.5,0-3,0-4.5,0c3.3-0.4,5.8-3.3,5.8-6.8
	c0-3.6-2.6-6.5-6-6.9c1.1,0,2,0,2.6,0c7.6,0,11.4-2.7,11.4-8c0-4.4-3.8-6.9-9.8-6.9h-13.6V77.3c9.5,0,19.5,1.4,27.1,4.7
	c6.5,2.9,11.1,7.2,12.3,13.3c0.1,0.6,0.2,1.1,0.3,1.7C228.2,97.5,228.2,98,228.2,98.5z"/>
<path id="XMLID_83_" class="st0" d="M533.5,83.1c0,3.9-3,7-6.9,7.2c-0.1,0-0.3,0-0.4,0s-0.2,0-0.4,0c-3.8-0.2-6.9-3.3-6.9-7.2
	c0-3.6,2.7-6.6,6.2-7.1c0.3-0.1,0.7-0.1,1-0.1s0.7,0,1,0.1C530.8,76.4,533.5,79.4,533.5,83.1z"/>
<path id="XMLID_133_" class="st0" d="M637.2,86.4c0,4-3,7.2-6.9,7.6c-0.1,0-0.3,0-0.4,0c-0.1,0-0.3,0-0.4,0c-0.1,0-0.3,0-0.4,0
	c-0.2,0-0.3,0-0.5,0c-0.1,0-0.1,0-0.2,0c-3.8-0.5-6.6-3.7-6.6-7.6c0-3.9,2.8-7,6.6-7.6c0,0,0.1,0,0.1,0c0.1,0,0.3,0,0.4,0
	c0.2,0,0.4,0,0.6,0c0.2,0,0.4,0,0.6,0c0.2,0,0.4,0,0.5,0.1C634.4,79.3,637.2,82.5,637.2,86.4z"/>
<polyline id="XMLID_14_" class="st2" points="516.9,95.6 516.9,90.3 516.9,75.9 "/>
<polyline id="XMLID_59_" class="st2" points="619.4,115.2 619.4,94 619.4,78.7 619.4,64.1 "/>
<path id="XMLID_95_" class="st0" d="M766.1,83.8c0,0.2,0,0.5,0,0.7c-0.3,3.2-2.9,5.8-6.1,6.2c-0.2,0-0.5,0-0.7,0s-0.5,0-0.7,0
	c-3.5-0.4-6.2-3.3-6.2-6.9c0-3.7,2.9-6.7,6.5-6.9c0.1,0,0.2,0,0.4,0s0.2,0,0.4,0c3.4,0.2,6.2,2.8,6.5,6.2
	C766.1,83.4,766.1,83.6,766.1,83.8z"/>
<path id="XMLID_104_" class="st0" d="M851.5,84.1c0,0.3,0,0.5,0,0.8c-0.3,3.4-3,6.2-6.4,6.8c-0.1,0-0.3,0-0.4,0.1
	c-0.3,0-0.5,0-0.8,0c-0.3,0-0.5,0-0.8,0c-0.1,0-0.3,0-0.4-0.1c-3.6-0.6-6.4-3.8-6.4-7.6c0-4,3.1-7.3,7.1-7.6c0.1,0,0.1,0,0.2,0
	c0.1,0,0.3,0,0.4,0c0.1,0,0.3,0,0.4,0c0.1,0,0.2,0,0.2,0c3.7,0.3,6.6,3.2,6.9,6.8C851.5,83.5,851.5,83.8,851.5,84.1z"/>
<polyline id="XMLID_25_" class="st2" points="835,76.2 835,76.5 835,91.6 "/>
<path id="XMLID_97_" class="st0" d="M950,57.7c0,0.4,0,0.8-0.1,1.1c-0.5,4.2-4.1,7.4-8.4,7.4c-4.3,0-7.9-3.2-8.4-7.4
	c-0.1-0.4-0.1-0.7-0.1-1.1s0-0.8,0.1-1.1c0.5-3.9,3.6-7,7.6-7.4c0.3,0,0.6,0,0.9,0c0.3,0,0.6,0,0.9,0c3.9,0.4,7,3.5,7.5,7.4
	C950,56.9,950,57.3,950,57.7z"/>
<circle id="XMLID_5_" class="st0" cx="941.5" cy="39.2" r="8.5"/>
<path id="XMLID_32_" class="st0" d="M209.5,208l25.4-32.6h-21l-22.8,29.5h-3.5v16.9h10.8l16.9,23.6h21.2L209.5,208z M185,177.6
	c-0.1-0.1-0.3-0.3-0.5-0.3c-0.3-0.3-0.7-0.6-1.1-0.7c-0.2-0.1-0.4-0.3-0.7-0.3c-0.9-0.5-1.8-0.7-2.8-0.8h-1.8
	c-3.9,0.4-7,3.3-7.8,7.1v3.3c0.8,4.1,4.4,7.2,8.6,7.2c0.9,0,1.7-0.1,2.4-0.3c0.5-0.1,0.9-0.3,1.3-0.5c0.6-0.3,1.1-0.6,1.6-0.9
	c0.5-0.4,1-0.8,1.4-1.3c0.3-0.4,0.7-0.8,0.9-1.2c0.4-0.7,0.7-1.3,0.9-2.1c0.1-0.2,0.1-0.5,0.2-0.7v-3.7
	C187.3,180.5,186.3,178.8,185,177.6z"/>
<path id="XMLID_52_" class="st1" d="M187.7,186.1v59.3h-17.3v-59.5c0.8,4.1,4.3,7.1,8.7,7.1C183.3,193,186.9,190,187.7,186.1z"/>
<path id="XMLID_34_" class="st0" d="M285.5,175.3v69.9h17.3v-69.9H285.5z M335.7,235.8c-0.7-3.1-3.2-5.4-6.3-6h-2.5
	c-3.3,0.5-5.8,3-6.4,6.2c0,0.2-0.1,0.3-0.1,0.5c0,0.3-0.1,0.6-0.1,0.9c0,0.3,0.1,0.6,0.1,0.9c0,0.2,0.1,0.4,0.1,0.6
	c0.2,0.9,0.5,1.7,0.9,2.4c0.4,0.7,0.9,1.3,1.5,1.9c0.6,0.5,1.3,1,2.1,1.3c0.8,0.3,1.6,0.6,2.5,0.7h1.5c3.3-0.4,6-2.9,6.8-6.1
	c0.1-0.5,0.1-1.1,0.1-1.6C335.8,236.9,335.8,236.4,335.7,235.8z"/>
<path id="XMLID_50_" class="st1" d="M327.4,245.2h-24.5v-15.3h24.1c-3.2,0.5-5.8,3-6.4,6.2c0,0.2-0.1,0.3-0.1,0.6
	c0,0.3-0.1,0.6-0.1,0.9c0,0.3,0,0.6,0.1,0.9c0,0.2,0,0.4,0.1,0.6C321.2,242.3,324,244.9,327.4,245.2z"/>
<path id="XMLID_36_" class="st0" d="M440,179.4l-21,43.1l-23-47.2h-15.5l-3.6,69.9h16.9l2.1-33.8l16.8,33.8h12.7l16.7-33.7v-0.1
	L440,179.4z M460.7,236.2c-0.7-4-4.2-7.2-8.4-7.2c-4.5,0-8.2,3.5-8.5,8l0.1,2.2v0.1c0.5,2.5,2.2,4.6,4.4,5.8h8
	c1-0.5,1.9-1.2,2.5-2.1c0.3-0.4,0.7-0.9,0.9-1.3c0.3-0.5,0.5-0.9,0.7-1.5c0.3-0.7,0.4-1.4,0.5-2.2v-0.5
	C460.8,237.2,460.7,236.7,460.7,236.2z"/>
<path id="XMLID_116_" class="st1" d="M460.7,236.2c-0.7-4.1-4.2-7.1-8.4-7.1c-4.5,0-8.2,3.5-8.5,7.9l-1.6-25.6l0,0l-2.1-32.1l2-4.1
	h15.4L460.7,236.2z"/>
<path id="XMLID_38_" d="M513.2,236.5c-0.7-4.1-4.2-7.3-8.5-7.3l-3.7,0.9c-0.6,0.3-1.1,0.6-1.7,1.1c-0.2,0.1-0.3,0.3-0.5,0.4
	c-0.8,0.8-1.5,1.7-1.9,2.6c-0.5,1-0.7,2.1-0.8,3.2c-0.1,0.2-0.1,0.4-0.1,0.6c0,0.5,0.1,1.1,0.2,1.7v0.1c0.5,2.3,1.9,4.3,3.8,5.6h9.4
	c1-0.6,1.8-1.5,2.5-2.4c0.2-0.5,0.5-0.9,0.7-1.4c0.2-0.4,0.3-0.8,0.5-1.2c0.1-0.6,0.3-1.2,0.3-1.8v-0.9
	C513.3,237.2,513.3,236.8,513.2,236.5z"/>
<polygon id="XMLID_109_" class="st0" points="561.6,175.2 561.6,245.2 545.8,245.2 496,182.9 496,175.2 511.9,175.2 544.3,216.2 
	544.3,175.2 "/>
<path id="XMLID_94_" class="st1" d="M545.8,245.2l-32.5-40.6v33c0-0.4,0-0.7-0.1-1.1c-0.7-4.1-4.2-7.3-8.5-7.3c-4.6,0-8.3,3.6-8.6,8
	v0c0,0.2,0,0.4,0,0.6v-55L545.8,245.2z"/>
<path id="XMLID_45_" class="st0" d="M703.3,188.1v55.5h17.3v-55.5H703.3z M730.5,209.6h-1.9c-3.7,0.4-6.6,3.6-6.6,7.5
	c0,0.4,0,0.8,0.1,1.2c0,0.1,0.1,0.1,0.1,0.2c0.1,0.3,0.1,0.6,0.2,0.9c0.1,0.3,0.2,0.5,0.3,0.7c0,0.1,0.1,0.3,0.1,0.4
	c0.1,0.3,0.3,0.6,0.5,0.9c0.3,0.4,0.6,0.7,0.9,1.1c0.4,0.3,0.7,0.6,1.1,0.9c0.4,0.3,0.9,0.5,1.3,0.7c0.5,0.2,1,0.4,1.5,0.5
	c0.5,0.1,0.9,0.1,1.4,0.1c0.5,0,0.9-0.1,1.4-0.1c0.5-0.1,1.1-0.3,1.5-0.5c0.5-0.2,0.9-0.4,1.3-0.7c0.4-0.3,0.7-0.6,1.1-0.9
	c1.3-1.4,2.2-3.3,2.2-5.4C737.2,213.1,734.3,210,730.5,209.6z"/>
<path id="XMLID_31_" class="st1" d="M760.6,198.6c0,7.9-2.8,14.3-8.3,19c-5.4,4.6-12.7,7-21.9,7c3.9-0.4,6.9-3.7,6.9-7.6
	c0-3.7-2.7-6.8-6.2-7.5h0.1c7.3,0,12.1-4.1,12.1-10.8c0-6.9-4.8-10.8-12.1-10.8c-2.5,0-6.1,0.1-10.7,0.2h-17.3v-14.5
	c11-0.5,19.9-0.8,26.9-0.8c9.4,0,16.8,2.3,22.2,6.9C757.9,184.2,760.6,190.5,760.6,198.6z"/>
<path id="XMLID_119_" class="st3" d="M737.3,217.1c0,4-3,7.2-6.9,7.6c0,0,0,0,0,0h-9.9v-15.1h8.2c-3.7,0.4-6.6,3.6-6.6,7.5
	c0,4.2,3.4,7.6,7.6,7.6c4.2,0,7.6-3.4,7.6-7.6c0-3.9-2.9-7.1-6.7-7.5h0.6C734.6,210.2,737.3,213.3,737.3,217.1z"/>
<path id="XMLID_143_" class="st0" d="M964.4,243.5h-20.6l-12.8-20c5.2-0.4,11.4-1.6,16.7-4.5L964.4,243.5z"/>
<path id="XMLID_139_" class="st1" d="M959.7,197.8c0,0.6,0,1.2-0.1,1.7c-0.5,8.6-4.8,15.3-12.1,19.4l0,0c-5.3,2.9-11.4,4.1-16.7,4.5
	l0-0.1h-0.9c3.1-0.8,5.5-3.6,5.6-6.9c0-0.1,0-0.2,0-0.3c0-3.6-2.6-6.6-6-7.3h0.9c3,0,5.5-0.8,7.5-2.1c2.8-1.6,4.4-4.2,4.4-8.7
	c0-3.8-1.3-6.6-4-8.2c-2.1-1.3-4.9-2-8.6-2c-1,0-2.8,0-5.1,0.1h-22.5v-14.4c9.6-0.4,18.9-0.6,28.1-0.6
	C948.7,172.9,959.7,181.8,959.7,197.8z"/>
<path id="XMLID_56_" class="st0" d="M184.4,304.1V374h17.4v-54.4h23.4v-15.5H184.4z M176.8,304.1h-3.5c-3.6,0.8-6.2,4-6.2,7.8
	c0,3.8,2.7,7,6.3,7.8h3.2c3.6-0.7,6.4-4,6.4-7.8C183,308.1,180.3,304.9,176.8,304.1z"/>
<path id="XMLID_43_" class="st1" d="M173.4,319.6H161v-15.5h12.3c-3.6,0.8-6.2,4-6.2,7.8C167.1,315.7,169.8,318.9,173.4,319.6z"/>
<path id="XMLID_62_" class="st1" d="M401.8,308.3l-1.9-4.5l-1.2-1.4H386c-1.9,1.7-3.1,4.2-3.1,7l2.9,6.8l23.5,55.2l9-22.3
	L401.8,308.3z"/>
<polygon id="XMLID_149_" class="st0" points="456.6,302.4 426.8,372.3 409.6,372.3 409.2,371.5 418.2,349.2 418.2,349.3 437,302.4 
	"/>
<path id="XMLID_64_" class="st0" d="M566.2,303.2l-13,42.8l-14.8-42.8h-14.3L509.3,346l-9.3,27.1h16.9l14.4-41.1l14.3,41.1h16.9
	l22.1-69.9H566.2z M498.2,309.6c0-0.2-0.1-0.4-0.1-0.6c-0.1-0.7-0.3-1.4-0.6-2.1c-0.1-0.3-0.3-0.6-0.5-0.9c-0.2-0.3-0.4-0.5-0.6-0.8
	c-0.1-0.3-0.3-0.5-0.5-0.7c-0.2-0.3-0.5-0.5-0.7-0.7c-0.3-0.3-0.7-0.6-1.1-0.8h-10.1c-0.4,0.2-0.7,0.5-1.1,0.8
	c-1.7,1.5-2.9,3.8-3,6.2l1.9,6c0.3,0.3,0.5,0.6,0.8,0.9c1.7,1.6,3.9,2.6,6.4,2.6c5,0,9-4.1,9-9.1
	C498.3,310.3,498.3,309.9,498.2,309.6z"/>
<path id="XMLID_63_" class="st1" d="M509.3,345.9l-9.3,27.2l-18-56.9c0.3,0.3,0.5,0.6,0.8,0.9v0c1.6,1.6,3.9,2.6,6.3,2.6
	c5,0,9.1-4.1,9.1-9.1c0-0.4,0-0.7-0.1-1.1c0-0.2-0.1-0.4-0.1-0.6L509.3,345.9z"/>
<path id="XMLID_66_" class="st0" d="M649.8,338.8l24.9-35.5h-21.1l-15.5,21.5l-11.9,14l-25.3,34.4h20.2l17-21.4l16.9,21.4h20.2
	L649.8,338.8z M627,309.5l-3.9-5.4l-1.7-0.9h-6.7c-3.5,1.3-6,4.7-6,8.6c0,0.9,0.1,1.7,0.4,2.5l3.6,5c0.3,0.3,0.7,0.5,1.2,0.7
	c1.2,0.7,2.7,1,4.2,1c2.5,0,4.9-1.1,6.6-2.7c1.7-1.7,2.7-4,2.7-6.6C627.3,311.1,627.2,310.2,627,309.5z"/>
<path id="XMLID_81_" class="st1" d="M638.1,324.8l-11.9,14l-13.5-19.3c1.5,1.1,3.4,1.7,5.4,1.7c5.1,0,9.3-4.2,9.3-9.3
	c0-0.8-0.1-1.7-0.3-2.4L638.1,324.8z"/>
<path id="XMLID_68_" class="st1" d="M742.5,329.4l-2.3-3.9c0,0-0.1-0.1-0.1-0.1l-13-22h-19.4l18.1,30.7c0,0,0,0,0,0.1l2.2,3.7
	c0.4,0.3,0.7,0.7,1.1,0.9c1.4,1.1,3.2,1.7,5,1.7c4.8,0,8.7-3.9,8.7-8.8C742.8,331,742.7,330.2,742.5,329.4z"/>
<polygon id="XMLID_91_" class="st0" points="781.4,303.4 753.3,351.2 753.3,373.4 735.8,373.4 735.8,351.2 761.9,303.4 "/>
<path id="XMLID_70_" d="M861.6,358.1h-3.6c-3.5,0.8-6.1,4-6.1,7.8s2.7,7,6.2,7.8h3.4l5-3.5v-8.6
	C865.4,359.8,863.6,358.6,861.6,358.1z"/>
<polygon id="XMLID_159_" class="st0" points="865.9,303.7 865.9,314.6 831.7,358.1 810,358.1 841.3,319.2 808,319.2 808,303.7 "/>
<path id="XMLID_99_" class="st1" d="M858.1,373.6h-51.8v-10.9l3.7-4.6h47.9c-3.5,0.8-6.1,4-6.1,7.8
	C851.8,369.7,854.5,372.9,858.1,373.6z"/>
<path id="XMLID_102_" class="st0" d="M187.9,184.2c0,0.6-0.1,1.3-0.2,1.9c-0.9,4-4.4,7-8.6,7c-4.3,0-7.9-3.1-8.7-7.1
	c0-0.2-0.1-0.4-0.1-0.7c0-0.3-0.1-0.7-0.1-1c0-0.3,0-0.7,0.1-1c0-0.2,0.1-0.4,0.1-0.6c0.7-3.8,3.9-6.7,7.8-7.1c0.3,0,0.6,0,0.9,0
	c0.3,0,0.6,0,0.9,0c3.8,0.4,6.9,3.2,7.7,6.9C187.9,182.9,187.9,183.6,187.9,184.2z"/>
<path id="XMLID_98_" class="st0" d="M335.8,237.5c0,0.6,0,1.1-0.2,1.6c-0.7,3.2-3.4,5.7-6.7,6.1c-0.3,0-0.6,0-0.8,0
	c-0.2,0-0.5,0-0.7,0c-3.4-0.3-6.2-2.9-6.9-6.2c0-0.2-0.1-0.4-0.1-0.6c0-0.3-0.1-0.6-0.1-0.9c0-0.3,0-0.6,0.1-0.9
	c0-0.2,0-0.4,0.1-0.6c0.6-3.2,3.2-5.7,6.4-6.2c0.1,0,0.3,0,0.4-0.1c0.2,0,0.5,0,0.8,0s0.6,0,0.8,0c0.2,0,0.3,0,0.5,0.1
	c3.1,0.5,5.6,2.9,6.3,6C335.8,236.4,335.8,236.9,335.8,237.5z"/>
<line id="XMLID_21_" class="st2" x1="302.9" y1="250.4" x2="302.9" y2="245.2"/>
<path id="XMLID_100_" class="st0" d="M460.8,237.6c0,0.2,0,0.4,0,0.6c-0.2,3-2,5.7-4.5,7c-1.2,0.6-2.6,1-4,1c-1.4,0-2.8-0.4-4-1
	c-2.2-1.2-3.9-3.3-4.4-5.8l0-0.1c-0.1-0.5-0.2-1.1-0.2-1.6c0-0.2,0-0.4,0-0.6v0c0.3-4.4,4-7.9,8.5-7.9c4.2,0,7.8,3.1,8.4,7.1
	C460.7,236.7,460.8,237.2,460.8,237.6z"/>
<path id="XMLID_117_" class="st0" d="M513.3,237.9c0,0.2,0,0.4,0,0.6c-0.2,2.8-1.7,5.3-3.9,6.7c-0.2,0.2-0.4,0.3-0.7,0.4
	c-1.2,0.6-2.6,1-4,1c-1.4,0-2.8-0.4-4-1c-0.2-0.1-0.4-0.3-0.7-0.4c-1.9-1.2-3.3-3.2-3.8-5.5l0-0.1c-0.1-0.5-0.2-1.1-0.2-1.7
	c0-0.2,0-0.4,0-0.6v0c0.3-4.5,4.1-8,8.6-8c4.3,0,7.8,3.1,8.5,7.3c0.1,0.3,0.1,0.7,0.1,1.1C513.3,237.7,513.3,237.8,513.3,237.9z"/>
<polyline id="XMLID_12_" class="st2" points="444.3,245.2 443.9,239.3 443.9,239.3 443.7,237 443.7,237 442.1,211.5 "/>
<line id="XMLID_49_" class="st2" x1="496" y1="182.9" x2="491.3" y2="177.1"/>
<path id="XMLID_127_" class="st0" d="M737.3,217.1c0,4-3,7.2-6.9,7.6c0,0,0,0,0,0c-0.2,0-0.5,0-0.8,0c-0.3,0-0.5,0-0.8,0
	c-3.9-0.4-6.9-3.7-6.9-7.6c0-3.7,2.7-6.8,6.1-7.5c0.2,0,0.4-0.1,0.6-0.1c0.3,0,0.7-0.1,1-0.1c0.3,0,0.6,0,0.9,0.1
	c0.2,0,0.4,0.1,0.6,0.1C734.6,210.2,737.3,213.3,737.3,217.1z"/>
<line id="XMLID_125_" class="st2" x1="720.5" y1="236" x2="720.5" y2="224.7"/>
<path id="XMLID_151_" class="st0" d="M935.7,216.2c0,0.1,0,0.2,0,0.3c-0.1,3.4-2.5,6.1-5.6,6.9c-0.3,0.1-0.6,0.1-0.9,0.2
	c-0.3,0-0.6,0.1-0.9,0.1c-0.2,0-0.3,0-0.4,0c-0.4,0-0.7-0.1-1.1-0.1c-0.1,0-0.2-0.1-0.3-0.1c-3.3-0.8-5.7-3.8-5.7-7.3
	c0-3.6,2.6-6.6,6-7.3c0.5-0.1,1-0.1,1.5-0.1c0.5,0,1,0.1,1.5,0.1C933.2,209.5,935.7,212.5,935.7,216.2z"/>
<rect id="XMLID_123_" x="902.3" y="187.9" class="st0" width="17.3" height="55.5"/>
<line id="XMLID_37_" class="st2" x1="902.3" y1="187.9" x2="895.6" y2="187.9"/>
<path id="XMLID_47_" class="st0" d="M183,311.8c0,3.8-2.7,7-6.3,7.8c-0.5,0.1-1,0.2-1.6,0.2s-1.1-0.1-1.6-0.2
	c-3.6-0.7-6.3-3.9-6.3-7.8c0-3.8,2.6-7,6.2-7.8c0.6-0.1,1.1-0.2,1.8-0.2s1.2,0.1,1.8,0.2C180.3,304.9,183,308,183,311.8z"/>
<polyline id="XMLID_69_" class="st2" points="184.4,303.1 184.4,304.1 184.4,319.6 "/>
<path id="XMLID_152_" class="st0" d="M401.9,309.4c0,5.3-4.3,9.5-9.5,9.5c-2.6,0-4.9-1-6.6-2.7v0c-1.8-1.7-2.9-4.1-2.9-6.8v0
	c0-2.8,1.2-5.3,3.1-7c1.7-1.6,3.9-2.5,6.4-2.5c2.5,0,4.7,0.9,6.4,2.5c0.5,0.4,0.9,0.9,1.2,1.4c1,1.3,1.6,2.8,1.8,4.5
	C401.9,308.7,401.9,309,401.9,309.4z"/>
<path id="XMLID_156_" class="st0" d="M498.3,310.7c0,5-4.1,9.1-9.1,9.1c-2.5,0-4.7-1-6.3-2.6v0c-0.3-0.3-0.6-0.6-0.8-0.9
	c-1.2-1.5-1.9-3.4-1.9-5.6v0c0-0.1,0-0.3,0-0.4c0.1-2.5,1.2-4.7,3-6.3c0.3-0.3,0.7-0.6,1-0.8c1.4-1,3.2-1.6,5.1-1.6
	c1.9,0,3.6,0.6,5.1,1.6c0.4,0.2,0.7,0.5,1,0.8c0.4,0.4,0.9,0.8,1.2,1.3c0.4,0.5,0.7,1.1,1,1.7c0.3,0.6,0.5,1.3,0.6,2
	c0.1,0.2,0.1,0.4,0.1,0.6C498.3,309.9,498.3,310.3,498.3,310.7z"/>
<line id="XMLID_145_" class="st2" x1="409.2" y1="371.5" x2="394.1" y2="409.1"/>
<line id="XMLID_144_" class="st2" x1="437" y1="302.4" x2="418.2" y2="349.2"/>
<path id="XMLID_1_" class="st3" d="M524.1,303.2"/>
<path id="XMLID_160_" class="st0" d="M627.3,311.9c0,5.1-4.2,9.3-9.3,9.3c-2,0-3.9-0.6-5.4-1.7c-1.7-1.2-3-3-3.6-5.1
	c-0.2-0.8-0.3-1.6-0.3-2.5c0-3.9,2.5-7.3,5.9-8.7c1-0.4,2.2-0.6,3.4-0.6c1.2,0,2.3,0.2,3.3,0.6l1.7,0.9c1.9,1.2,3.3,3.1,3.9,5.3
	C627.2,310.3,627.3,311.1,627.3,311.9z"/>
<path id="XMLID_162_" class="st0" d="M742.8,331.7c0,4.8-3.9,8.7-8.7,8.7c-1.9,0-3.6-0.6-5-1.6c-0.4-0.3-0.8-0.6-1.1-0.9
	c-1-1-1.8-2.3-2.2-3.7c0,0,0,0,0-0.1c-0.2-0.8-0.3-1.5-0.3-2.3c0-3.7,2.3-6.8,5.6-8.1c1-0.4,2-0.6,3.1-0.6c1.1,0,2.2,0.2,3.1,0.6
	l1.6,0.8c0.5,0.3,0.9,0.7,1.3,1.1c1.1,1.1,1.9,2.4,2.3,3.9c0,0,0,0,0,0C742.7,330.2,742.8,331,742.8,331.7z"/>
<path id="XMLID_167_" class="st0" d="M867.7,365.9c0,1.6-0.5,3-1.3,4.3c-1.1,1.8-2.9,3-5,3.5c-0.6,0.1-1.1,0.2-1.7,0.2
	c-0.6,0-1.1-0.1-1.7-0.2c-3.6-0.8-6.3-4-6.3-7.8c0-3.8,2.6-6.9,6.1-7.8c0.6-0.1,1.2-0.2,1.8-0.2c0.6,0,1.2,0.1,1.8,0.2
	c2,0.5,3.8,1.7,4.9,3.4C867.3,362.8,867.7,364.3,867.7,365.9z"/>
<line id="XMLID_53_" class="st2" x1="810" y1="358.1" x2="785.4" y2="358.1"/>
<path id="XMLID_44_" class="st0" d="M62.5,451.2c2.7-1.1,4.6-3.7,4.6-6.8c0-0.3,0-0.6-0.1-0.9c-0.1-1.3-0.6-2.5-1.4-3.5
	c-0.3-0.4-0.6-0.8-0.9-1.1c-1.3-1.2-3.1-1.9-5-1.9c-0.3,0-0.7,0-1,0.1l-2.1,0.6c-0.5,0.2-0.9,0.4-1.3,0.7l3.2,13.3
	c0.3,0.1,0.7,0.1,1.1,0.1h0.7C61.2,451.7,61.8,451.5,62.5,451.2l11.9-2.9L62.5,451.2z M74.4,448.4v50h16.4v-54L74.4,448.4z"/>
<path id="XMLID_193_" class="st1" d="M90.8,429.4v14.9l-28.3,6.9c2.7-1.1,4.7-3.8,4.7-6.9c0-0.3,0-0.6-0.1-0.9
	c-0.2-1.3-0.7-2.5-1.4-3.5c-0.3-0.4-0.6-0.8-1-1.1c-1.3-1.2-3.1-1.9-5-1.9c-0.3,0-0.7,0-1,0.1l26.6-7.7H90.8z"/>
<path id="XMLID_71_" class="st1" d="M185.1,485.6c-1.1-1.1-2.6-1.7-4.2-1.9h-21.4c-7.6,6.3-13.5,11.1-17.9,14.7H179
	c0.1,0,0.1,0,0.1,0h2.1c0.5-0.1,1.1-0.2,1.6-0.4c0.1,0,0.1-0.1,0.1-0.1c0.9-0.4,1.9-1,2.6-1.7v-10.3
	C185.4,485.8,185.2,485.7,185.1,485.6z"/>
<path id="XMLID_188_" class="st0" d="M184.5,450c0,9.4-5.5,16.7-16,26.2l-9,7.5c-7.6,6.3-13.5,11-17.9,14.7h-6.3v-11.2l22.7-21.1
	c7-6.4,9.6-9.5,9.6-13.7c0-6.2-4.3-9.3-11.3-9.3c-4.8,0-10.9,1.2-18.5,3.8l-3.5-14.1c8.9-3.2,17.1-4.9,24.7-4.9
	c8.4,0,14.7,2.1,19,6.3C182.4,438.4,184.5,443.6,184.5,450z"/>
<path id="XMLID_164_" class="st0" d="M275.4,429.5H227v14.7h26.7l-16.3,19v7.1h11.1l10.1-11.8l1.1-0.3c-0.3,0-0.6-0.1-0.9-0.1
	l16.5-19.3V429.5z M239.1,488.9c-0.1-1.3-0.6-2.5-1.3-3.4c-0.2-0.3-0.4-0.5-0.6-0.7c-0.1-0.1-0.3-0.2-0.3-0.3
	c-0.3-0.3-0.7-0.6-1.1-0.8c-1-0.3-2-0.7-3-1c-0.2-0.1-0.5-0.1-0.7-0.1c-0.2,0-0.4,0-0.6,0.1h-0.4c-0.7,0.1-1.3,0.3-1.9,0.6
	c-0.4,0.1-0.7,0.3-1.1,0.6l-2.9,7.7c0.3,1.3,1,2.4,1.9,3.3c0.6,0.6,1.2,1.1,1.9,1.4c0.5,0.1,0.9,0.3,1.3,0.4c0.1,0,0.1,0.1,0.1,0.1
	c0.1,0,0.3,0.1,0.5,0.1c0.1,0,0.1,0,0.1,0c0.3,0.1,0.7,0.1,1,0.1c0.2,0,0.5-0.1,0.7-0.1c0.1,0,0.2,0,0.3-0.1
	c0.5-0.1,1.1-0.1,1.5-0.3c0.1,0,0.1-0.1,0.1-0.1c0.9-0.4,1.8-0.9,2.5-1.7c1.2-1.3,2-3.1,2-5C239.1,489.5,239.1,489.2,239.1,488.9z"
	/>
<path id="XMLID_201_" class="st1" d="M278.1,476.8c0,14.6-9.5,23.1-27.7,23.1c-7,0-13.6-1.1-20.1-3.3c0.2,0.1,0.4,0.1,0.6,0.1
	c0.1,0,0.1,0,0.1,0c0.3,0.1,0.6,0.1,1,0.1c0.2,0,0.5,0,0.7,0h0c0.1,0,0.2,0,0.3-0.1c0.5-0.1,1.1-0.2,1.6-0.4c0,0,0.1,0,0.1,0
	c0.9-0.4,1.8-0.9,2.5-1.7c1.3-1.3,2-3,2-5c0-0.3,0-0.5-0.1-0.8c-0.2-1.3-0.6-2.4-1.4-3.4c-0.2-0.3-0.4-0.5-0.6-0.7
	c-0.1-0.1-0.2-0.2-0.3-0.3c-0.3-0.3-0.7-0.6-1.1-0.8c5.2,1.6,10.2,2.4,15,2.4c6.8,0,11.3-3.5,11.3-8.9c0-4.1-4.6-6.9-11.5-6.9h-1.9
	l10.1-11.8l1.1-0.3C271,459.5,278.1,467,278.1,476.8z"/>
<path id="XMLID_166_" class="st0" d="M355.4,429.5l-36.9,44.3H336l19.4-24.8v49.4h15.5v-68.9H355.4z M354.2,479.8
	c-0.2-1.2-0.7-2.3-1.3-3.3c-0.2-0.3-0.4-0.5-0.6-0.7c-0.1-0.1-0.2-0.2-0.3-0.3c-0.3-0.3-0.7-0.5-1.1-0.8c-0.8-0.5-1.7-0.8-2.7-0.9
	h-1.7c-0.1,0-0.1,0-0.1,0c-0.7,0.1-1.3,0.3-1.9,0.5c-0.4,0.1-0.7,0.3-1.1,0.6c-0.1,0-0.1,0.1-0.1,0.1c-0.2,0.1-0.5,0.3-0.6,0.5
	c-1.4,1.3-2.3,3.1-2.3,5.1c0,0.7,0.1,1.3,0.3,1.8c0.3,1.3,0.9,2.3,1.9,3.2c0.5,0.5,1.2,1,1.9,1.3c0.4,0.1,0.8,0.3,1.3,0.4h0.1
	c0.1,0.1,0.3,0.1,0.3,0.1h2.5c0.5-0.1,0.9-0.1,1.3-0.3c0,0,0,0,0.1,0c0.9-0.4,1.7-0.9,2.4-1.7c1.2-1.2,2-2.9,2-4.8
	C354.2,480.3,354.2,480,354.2,479.8z"/>
<path id="XMLID_76_" class="st1" d="M340.4,480.6L340.4,480.6c0,0.6,0.1,1.2,0.2,1.8c0.3,1.2,1,2.3,1.9,3.1v0c0.6,0.5,1.2,1,1.9,1.3
	c0.4,0.2,0.8,0.3,1.2,0.4c0,0,0.1,0,0.1,0c0.1,0,0.2,0.1,0.4,0.1h-29.3v-11.5l1.8-2.1h28c-0.1,0-0.1,0-0.1,0
	c-0.6,0.1-1.3,0.3-1.9,0.5c-0.4,0.2-0.7,0.3-1,0.6c-0.1,0-0.1,0.1-0.2,0.1c-0.2,0.1-0.4,0.3-0.6,0.5
	C341.3,476.7,340.4,478.6,340.4,480.6z"/>
<path id="XMLID_170_" d="M466.4,430.5c-0.8-0.5-1.7-0.9-2.7-1h-2.3c-0.7,0.1-1.5,0.3-2.1,0.6c-0.4,0.1-0.8,0.4-1.1,0.7
	c-0.1,0-0.1,0.1-0.2,0.1c-0.3,0.1-0.5,0.3-0.7,0.5c-1.6,1.3-2.6,3.5-2.6,5.6v0.1c0,0.7,0.1,1.3,0.3,2c0.4,1.4,1.1,2.6,2.1,3.5
	c0.6,0.6,1.3,1.1,2.1,1.5c0.5,0.2,0.9,0.3,1.4,0.5c0.1,0,0.1,0,0.1,0c0.1,0,0.3,0.1,0.4,0.1c0.1,0,0.1,0,0.2,0.1c0.1,0,0.1,0,0.1,0
	h2.1c0.1,0,0.2-0.1,0.3-0.1c0.5-0.1,0.9-0.2,1.3-0.3c0.1,0,0.1-0.1,0.1-0.1c0.8-0.3,1.5-0.7,2.2-1.4v-11.6
	C467.2,430.9,466.8,430.7,466.4,430.5z"/>
<path id="XMLID_157_" class="st1" d="M461.1,444.7c0.1,0,0.1,0,0.2,0.1h-22.2l1.5-15.3h20.8c-0.7,0.1-1.5,0.3-2.1,0.6
	c-0.4,0.1-0.8,0.4-1.1,0.7c-0.1,0-0.1,0.1-0.2,0.1c-0.3,0.1-0.5,0.3-0.7,0.5c-1.6,1.3-2.6,3.5-2.6,5.6v0.1c0,0.7,0.1,1.3,0.3,2
	c0.4,1.4,1.1,2.6,2.1,3.5c0.6,0.6,1.3,1.1,2.1,1.5c0.5,0.2,0.9,0.3,1.4,0.5c0.1,0,0.1,0,0.1,0C460.8,444.6,460.9,444.7,461.1,444.7z
	"/>
<path id="XMLID_108_" class="st0" d="M470.4,476.4c0,7-2.5,12.7-7.4,17.1c-4.8,4.4-11.6,6.5-20.4,6.5c-9.2,0-17.8-1.9-26.2-5.8
	l4.8-13.6c7.9,3.3,14.9,5,21.1,5c7.3,0,11.5-3.5,11.5-8.8c0-4.8-4.6-7.9-11.9-8.2l-20.2-1.1l3.3-38.1h15.6l-1.5,15.3l-0.9,9.8
	l6.6,0.3C460.9,455.7,470.4,463.4,470.4,476.4z"/>
<path id="XMLID_197_" class="st0" d="M67.2,444.4c0,3.1-1.9,5.8-4.7,6.9c0,0-0.1,0-0.1,0c-0.6,0.2-1.2,0.4-1.9,0.5h0
	c-0.2,0-0.5,0-0.7,0c-0.4,0-0.8,0-1.1-0.1c-1.6-0.2-2.9-0.9-4-2v0c-1.4-1.3-2.2-3.2-2.2-5.3v0c0-2.2,0.9-4.1,2.4-5.4
	c0.2-0.2,0.4-0.4,0.7-0.5c0.4-0.3,0.8-0.5,1.3-0.7c0.6-0.3,1.3-0.5,2-0.6c0.3-0.1,0.7-0.1,1-0.1c1.9,0,3.7,0.7,5,1.9
	c0.4,0.3,0.7,0.7,1,1.1c0.7,1,1.2,2.2,1.4,3.5C67.1,443.8,67.2,444.1,67.2,444.4z"/>
<path id="XMLID_200_" class="st0" d="M187.6,491.1c0,2-0.8,3.8-2.1,5.2c-0.7,0.8-1.6,1.4-2.6,1.7c0,0-0.1,0-0.1,0
	c-0.5,0.2-1.1,0.3-1.6,0.4c-0.1,0-0.2,0-0.3,0.1h0c-0.2,0-0.5,0-0.7,0c-0.3,0-0.7,0-1-0.1c-0.1,0-0.1,0-0.2,0c-1.6-0.2-2.9-0.9-4-2
	v0c-1.4-1.3-2.2-3.2-2.2-5.3v0c0-2.2,0.9-4.1,2.4-5.5c0.2-0.2,0.4-0.4,0.7-0.5c0.4-0.3,0.8-0.5,1.3-0.7c0.6-0.3,1.3-0.5,2-0.6
	c0.1,0,0.3-0.1,0.4-0.1c0.2,0,0.4,0,0.6,0c0.2,0,0.5,0,0.7,0c1.7,0.2,3.1,0.9,4.3,1.9c0.1,0.1,0.2,0.2,0.3,0.3
	c0.2,0.2,0.4,0.5,0.6,0.7c0.7,1,1.2,2.2,1.4,3.5C187.5,490.5,187.6,490.8,187.6,491.1z"/>
<path id="XMLID_206_" class="st0" d="M239.2,489.7c0,1.9-0.8,3.7-2,5c-0.7,0.7-1.5,1.3-2.5,1.7c0,0-0.1,0-0.1,0
	c-0.5,0.2-1,0.3-1.6,0.4c-0.1,0-0.2,0-0.3,0.1h0c-0.2,0-0.5,0-0.7,0c-0.3,0-0.6,0-1-0.1c0,0-0.1,0-0.1,0c-0.2,0-0.4-0.1-0.6-0.1
	c0,0-0.1,0-0.1,0c-0.4-0.1-0.8-0.3-1.3-0.4c-0.7-0.3-1.4-0.8-1.9-1.4v0c-0.9-0.9-1.6-2-1.9-3.2c-0.2-0.6-0.3-1.2-0.3-1.8v0
	c0-2.1,0.9-4,2.3-5.2c0.2-0.2,0.4-0.4,0.6-0.5c0.1-0.1,0.1-0.1,0.2-0.1c0.3-0.3,0.7-0.4,1-0.6c0.6-0.3,1.3-0.5,1.9-0.6
	c0.1,0,0.3-0.1,0.4-0.1c0.2,0,0.4,0,0.6,0c0.2,0,0.5,0,0.7,0h0c1.1,0.1,2.1,0.4,3,1c0.4,0.2,0.8,0.5,1.1,0.8
	c0.1,0.1,0.2,0.2,0.3,0.3c0.2,0.2,0.4,0.4,0.6,0.7c0.7,0.9,1.2,2.1,1.4,3.4C239.1,489.2,239.2,489.5,239.2,489.7z"/>
<path id="XMLID_187_" class="st0" d="M354.2,480.6c0,1.9-0.8,3.6-2,4.8c-0.7,0.7-1.5,1.3-2.4,1.6c0,0-0.1,0-0.1,0
	c-0.4,0.2-0.8,0.3-1.2,0.3c-0.1,0-0.2,0-0.3,0.1c-0.1,0-0.2,0-0.3,0.1h0c-0.2,0-0.4,0-0.6,0c-0.3,0-0.6,0-0.9-0.1c0,0-0.1,0-0.1,0
	c-0.1,0-0.1,0-0.2,0c-0.1,0-0.2,0-0.4-0.1c0,0-0.1,0-0.1,0c-0.4-0.1-0.8-0.3-1.2-0.4c-0.7-0.3-1.3-0.8-1.9-1.3v0
	c-0.9-0.8-1.5-1.9-1.9-3.1c-0.2-0.6-0.2-1.1-0.2-1.8v0c0-2,0.9-3.9,2.3-5.1c0.2-0.2,0.4-0.3,0.6-0.5c0.1-0.1,0.1-0.1,0.2-0.1
	c0.3-0.2,0.7-0.4,1-0.6c0.6-0.3,1.2-0.5,1.9-0.5c0.1,0,0.1,0,0.1,0c0.1,0,0.2,0,0.3,0c0.2,0,0.4,0,0.6,0c0.2,0,0.4,0,0.6,0h0
	c0.1,0,0.2,0,0.2,0c1,0.1,1.9,0.4,2.7,0.9c0.4,0.2,0.8,0.5,1.1,0.8c0.1,0.1,0.2,0.2,0.3,0.3c0.2,0.2,0.4,0.4,0.6,0.7
	c0.7,0.9,1.1,2.1,1.3,3.3C354.2,480,354.2,480.3,354.2,480.6z"/>
<path id="XMLID_203_" class="st0" d="M470.2,437c0,2.1-0.9,4-2.3,5.4c-0.1,0.1-0.3,0.3-0.5,0.4c-0.7,0.7-1.4,1.1-2.2,1.4
	c-0.1,0-0.1,0.1-0.1,0.1c-0.4,0.1-0.9,0.3-1.3,0.3c-0.1,0-0.2,0.1-0.3,0.1c-0.1,0-0.2,0-0.3,0.1h-0.7c-0.4,0-0.7,0-1.1-0.1
	c0,0-0.1,0-0.1,0c-0.1-0.1-0.1-0.1-0.2-0.1c-0.1,0-0.3-0.1-0.4-0.1c-0.1,0-0.1,0-0.1,0c-0.5-0.2-0.9-0.3-1.4-0.5
	c-0.7-0.3-1.5-0.9-2.1-1.5c-1-0.9-1.7-2.1-2.1-3.5c-0.1-0.7-0.3-1.3-0.3-2V437c0-2.2,1-4.3,2.6-5.6c0.2-0.2,0.4-0.4,0.7-0.5
	c0.1-0.1,0.1-0.1,0.2-0.1c0.3-0.3,0.7-0.5,1.1-0.7c0.7-0.3,1.4-0.5,2.1-0.6c0-0.1,0.1-0.1,0.1-0.1h0.3c0.2-0.1,0.5-0.1,0.7-0.1
	c0.2,0,0.5,0.1,0.7,0.1h0.3c0.1,0,0.2,0,0.3,0.1c1,0.1,1.9,0.5,2.7,1c0.4,0.3,0.8,0.5,1.1,0.8c0.1,0.1,0.1,0.1,0.1,0.1
	c0.1,0.1,0.3,0.2,0.3,0.3c0.3,0.2,0.5,0.5,0.7,0.7c0.8,1.1,1.3,2.4,1.5,3.7C470.1,436.5,470.2,436.8,470.2,437z"/>
<line id="XMLID_192_" class="st2" x1="92.8" y1="443.9" x2="90.8" y2="444.4"/>
<polyline id="XMLID_186_" class="st2" points="58.7,452.2 60.5,451.7 60.5,451.7 62.5,451.2 "/>
<path id="XMLID_169_" class="st2" d="M176.9,510.3c0,0,0,0,14.6-11.9"/>
<path id="XMLID_202_" class="st0" d="M259.8,458.1l-1.1,0.3l-21.2,4.7c6.7-7,15.5-5.7,21.5-5.1h0
	C259.2,458.1,259.5,458.1,259.8,458.1z"/>
<line id="XMLID_195_" class="st2" x1="248.6" y1="470.2" x2="241.9" y2="478"/>
<polyline id="XMLID_171_" class="st2" points="258.6,458.4 258.9,458 258.9,458 275.4,438.8 "/>
<polyline id="XMLID_205_" class="st2" points="355.3,466 355.3,473.8 355.3,487.4 355.3,498.4 "/>
<polyline id="XMLID_67_" class="st2" points="370.9,459.2 370.9,473.8 370.9,487.4 370.9,498.4 "/>
<line id="XMLID_165_" class="st2" x1="451.8" y1="474.3" x2="451.9" y2="483.8"/>
<line id="XMLID_60_" class="st2" x1="318.5" y1="473.8" x2="313.1" y2="473.8"/>
<line id="XMLID_75_" class="st2" x1="440.9" y1="426.1" x2="440.5" y2="429.5"/>
<path d="M103.2,195.8c-0.3-0.1-0.6-0.1-0.8-0.1c-0.3,0-0.6,0-0.9,0.1c-1.1,0.1-2,0.4-2.9,0.8c-0.5,0.2-0.9,0.5-1.4,0.8
	c-1.8,1.3-3.2,3.4-3.5,5.8v2.6c0.6,4.4,4.3,7.5,8.7,7.5c0.9,0,1.9-0.1,2.7-0.5c0.1,0,0.1,0,0.2-0.1c0.5-0.3,1.1-0.5,1.6-0.8
	c0.1,0,0.3-0.1,0.5-0.2c2-1.4,3.5-3.6,3.8-6.2v-1.9C110.8,199.5,107.5,196.2,103.2,195.8z"/>
<path class="st0" d="M111.2,214.6v0.1c0,19.1-9.8,30.2-26.6,30.2c-7.2,0-15.2-1.4-23.9-4.4l3.2-15c7.9,1.9,14.6,2.9,20,2.9
	c6,0,9.8-4.9,9.8-13.4v-0.5H111.2z"/>
<path class="st1" d="M111.2,173.9v29.8c-0.4-4.2-3.7-7.5-7.9-7.9c-0.3-0.1-0.6-0.1-0.8-0.1c-0.3,0-0.6,0-0.9,0.1
	c-1.1,0.1-2,0.4-2.9,0.8c-0.5,0.2-0.9,0.5-1.4,0.8c-1.8,1.3-3.2,3.4-3.5,5.8v-29.3H111.2z"/>
<path class="st0" d="M111.2,204.5c0,0.4,0,0.8-0.1,1.1c-0.3,2.6-1.8,4.8-3.8,6.2c-0.1,0.1-0.3,0.2-0.5,0.2c-0.5,0.4-1,0.6-1.6,0.8
	c-0.1,0.1-0.1,0.1-0.2,0.1c-0.8,0.3-1.8,0.5-2.7,0.5c-4.4,0-8.1-3.2-8.7-7.5c-0.1-0.1-0.1-0.2-0.1-0.3c-0.1-0.3-0.1-0.6-0.1-1
	s0-0.6,0.1-1c0-0.1,0-0.2,0.1-0.3c0.3-2.4,1.7-4.5,3.5-5.8c0.5-0.3,0.9-0.6,1.4-0.8c0.9-0.5,1.8-0.8,2.9-0.8
	c0.3-0.1,0.6-0.1,0.9-0.1c0.3,0,0.6,0,0.8,0.1c4.2,0.4,7.5,3.8,7.9,7.9C111.2,204,111.2,204.3,111.2,204.5z"/>
<path class="st1" d="M333.2,113.8c-8.8,2.4-16.8,3.6-24.1,3.6c-8.8,0-16.2-1-21.7-6l9.9-12.7c2.9,2.8,8.6,3.5,13,3.5
	c4.7,0,11.4-0.9,20.2-2.6L333.2,113.8z"/>
<path class="st0" d="M333.2,52l-2.7,14.8c-9-1.8-15.5-2.6-19.3-2.6c-13.5,0-21.4,7.7-21.4,18.7c0,2.7,0.4,5.1,1.2,7.3L278.3,103
	c-3.9-5.5-5.8-12.2-5.8-20c0-10.2,3.4-18.4,10-24.7c6.8-6.3,15.7-9.5,26.7-9.5C317,48.8,325,49.9,333.2,52z"/>
<path id="XMLID_279_" class="st0" d="M299.6,104.5c0,3.7-2.3,6.8-5.5,7.9c-0.5,0.2-1,0.3-1.5,0.4c-0.3,0.1-0.5,0.1-0.8,0.1h-0.3
	c-0.4,0-0.9,0-1.3-0.1c-3.8-0.6-6.8-4.1-6.8-8.2c0-3.9,2.5-7.1,5.9-8.1c0.5-0.2,1.1-0.3,1.7-0.3c0.1,0,0.2,0,0.4,0h0.1
	c0.3,0,0.5,0,0.7,0h0.1C296.5,96.6,299.6,100.2,299.6,104.5z"/>
<path class="st0" d="M666.4,208.6c0,10.7-3.4,19.4-10.3,26c-6.8,6.6-15.6,9.9-26.6,9.9c-10.9,0-19.8-3.3-26.6-9.9
	c-0.3-0.3-0.6-0.6-0.8-1l12.1-12.1c0.5,0.6,0.9,1.2,1.4,1.7c3.7,3.7,8.3,5.5,14,5.5c5.7,0,10.3-1.8,13.8-5.5
	c3.7-3.7,5.5-8.7,5.5-14.7c0-1.7-0.1-3.4-0.5-5l13.5-13.5C665,195.4,666.4,201.6,666.4,208.6z"/>
<path class="st1" d="M655.3,182c-1.4-0.8-2.9-1.4-4.6-1.4c-4.8,0-8.7,3.9-8.7,8.7c0,1.2,0.3,2.4,0.7,3.5c0.1,0.3,0.3,0.6,0.5,0.9
	c-3.5-3.5-8-5.3-13.6-5.3c-5.7,0-10.3,1.8-14,5.5c-3.5,3.7-5.3,8.6-5.3,14.5c0,5.1,1.3,9.5,3.9,12.9l-12.1,12.1
	c-6.3-6.4-9.4-14.8-9.4-25c0-10.7,3.4-19.4,10.2-25.9c6.8-6.6,15.7-9.9,26.6-9.9C640.1,172.8,648.7,175.9,655.3,182z"/>
<path class="st0" d="M658.6,188.5c0,1.7-0.5,3.3-1.4,4.6c-0.6,1.1-1.5,2-2.6,2.6c-0.1,0.1-0.3,0.2-0.4,0.3c-1.3,0.8-2.8,1.2-4.4,1.2
	c-1.6,0-3.2-0.5-4.4-1.2c-0.5-0.3-0.9-0.5-1.3-0.9c-0.5-0.4-0.9-0.8-1.3-1.4c-0.2-0.3-0.4-0.5-0.6-0.8c0,0,0,0,0-0.1
	c-0.2-0.3-0.4-0.6-0.5-0.9c-0.5-1.1-0.7-2.3-0.7-3.5c0-4.8,3.9-8.7,8.7-8.7c1.7,0,3.3,0.5,4.6,1.4c0.1,0,0.1,0.1,0.1,0.1
	c0.1,0.1,0.1,0.1,0.2,0.1c0.2,0.1,0.3,0.3,0.5,0.5c0.2,0.1,0.5,0.3,0.6,0.5c0,0.1,0,0.1,0.1,0.1c0.3,0.4,0.7,0.8,1,1.3
	c0.1,0.2,0.3,0.4,0.4,0.6c0.2,0.4,0.4,0.8,0.6,1.3C658.4,186.4,658.6,187.5,658.6,188.5z"/>
<line class="st2" x1="658.1" y1="194" x2="655.4" y2="196.7"/>
<path d="M808.8,217.3c0.1-0.1,0-0.1-0.1-0.1c-0.1-0.3-0.3-0.6-0.4-1c0,0,0,0,0-0.1c-1.3-2.7-4-4.7-7.2-5c-0.3,0-0.6-0.1-0.9-0.1
	s-0.6,0.1-0.9,0.1c-4.2,0.4-7.5,3.7-8,7.9c0,0.4-0.1,0.7-0.1,1.1c0,0.3,0.1,0.7,0.1,1c0,0.2,0.1,0.4,0.1,0.5c0,0.1,0,0.1,0.1,0.2
	c0.4,1.1,0.8,2,1.2,3.1c0,0.1,0.1,0.2,0.1,0.2c1.6,2.4,4.3,4,7.4,4c5,0,9-4,9-9C809.3,219.2,809.1,218.2,808.8,217.3z"/>
<path class="st1" d="M861.4,259.6h-20.6l-12.9-15.3h-1.3c-11.1,0-20.1-3.3-27-10c-2.8-2.7-5-5.8-6.7-9.1c1.6,2.4,4.3,4,7.4,4
	c5,0,9-4,9-9c0-1-0.2-1.9-0.5-2.8c0.9,2,2.1,3.9,3.6,5.5c3.7,3.8,8.4,5.7,14.2,5.7c3.1,0,6-0.6,8.5-1.8l14.5,18.7L861.4,259.6z"/>
<path class="st0" d="M863.9,208c0,12.5-9.6,25.9-18.4,32.3L835,226.8c0.3-0.2,0.6-0.6,0.9-0.8c8.6-6.7,10.1-11.9,10.1-18
	s-1.9-10.9-5.5-14.7c-3.6-3.8-8.3-5.6-13.9-5.6c-5.8,0-10.4,1.8-14.2,5.6c-3.6,3.8-5.4,8.7-5.4,14.7c0,0.4,0,0.8,0.1,1.1h-17.8
	c-0.1-0.3-0.1-0.7-0.1-1.1c0-10.8,3.5-19.6,10.3-26.3c6.9-6.7,15.9-10,27-10c11,0,20,3.3,27,10C860.4,188.4,863.9,197.2,863.9,208z"
	/>
<path class="st0" d="M809.3,220.1c0,5-4,9-9,9c-3.1,0-5.9-1.6-7.4-4c-0.1-0.1-0.1-0.2-0.1-0.2c-0.6-0.9-1.1-1.9-1.2-3.1
	c-0.1-0.1-0.1-0.1-0.1-0.2c-0.1-0.2-0.1-0.4-0.1-0.5c0-0.3-0.1-0.7-0.1-1c0-0.4,0.1-0.7,0.1-1.1c0.5-4.1,3.8-7.4,8-7.9
	c0.3,0,0.6-0.1,0.9-0.1s0.6,0.1,0.9,0.1c3.2,0.3,5.9,2.3,7.2,5c0,0.1,0,0.1,0,0.1c0.1,0.3,0.3,0.6,0.4,1c0.1,0.1,0.1,0.1,0.1,0.1
	C809.1,218.2,809.3,219.2,809.3,220.1z"/>
<path d="M100.4,355.2c-0.2-0.1-0.4-0.1-0.6-0.1c-0.3,0-0.7-0.1-1-0.1c-0.3,0-0.7,0.1-1,0.1c-0.2,0.1-0.5,0.1-0.7,0.1
	c-0.3,0.1-0.7,0.1-1,0.3c-0.6,0.7-1.6,1.2-2.8,1.6c-1.8,1.6-3,3.9-3,6.5c0,4.5,3.4,8.1,7.7,8.5H98c2.6-0.6,4.9-1.5,6.9-2.6
	c1.5-1.5,2.4-3.6,2.4-5.9C107.3,359.4,104.3,355.9,100.4,355.2z"/>
<path class="st0" d="M116.1,350.8c0,3.4-0.6,6.4-1.7,9l-17-7.6v-0.3c0-1.8-0.9-3.3-2.3-4.2c-0.8-0.8-2.7-1.5-3.8-1.7
	c-0.9-0.4-3.7-1-5-1.3c-1.1-0.4-4.4-0.8-5.7-1.2c-8.2-1.7-14.1-4.1-17.7-7.1c-3.6-3.1-5.3-7.6-5.3-13.5c0-6.9,2.6-12.3,7.6-16.2
	c5.2-4,12.2-5.9,21-5.9c9.9,0,19.4,1.5,28.4,4.8l-3.8,15c-10.1-3.1-18.3-4.6-24.5-4.6c-6.5,0-9.8,2-9.8,6.2c0,2.4,1.6,4.1,5,5.2
	c1.3,0.5,4.9,1.3,10.6,2.4c8,1.8,14,4.2,18,7.3C114.1,339.9,116.1,344.5,116.1,350.8z"/>
<path class="st1" d="M98,372.1c-3.4,0.8-7.1,1.3-11.3,1.3c-10.1,0-20.5-2-31.3-6.1l3.9-15.4c10.2,3.8,19.1,5.9,26.6,6
	c2.9,0,5.2-0.3,7.1-0.8c-1.8,1.6-3,3.9-3,6.5c0,4.5,3.4,8.1,7.7,8.5H98z"/>
<path class="st0" d="M107.3,363.6c0,2.3-0.9,4.4-2.4,5.9c-1.3,1.4-3.2,2.4-5.3,2.6c0,0,0,0-0.1,0c-0.3,0.1-0.6,0.1-0.8,0.1
	c-0.2,0-0.5,0-0.7-0.1h-0.2c-4.3-0.4-7.7-4.1-7.7-8.5c0-2.6,1.2-4.9,3-6.5c0.8-0.7,1.7-1.3,2.8-1.6c0.3-0.1,0.7-0.2,1-0.3
	c0.2-0.1,0.5-0.1,0.7-0.1c0.3,0,0.7-0.1,1-0.1c0.3,0,0.7,0.1,1,0.1c0.2,0.1,0.4,0.1,0.6,0.1C104.3,355.9,107.3,359.4,107.3,363.6z"
	/>
<line class="st2" x1="1.7" y1="359.5" x2="0" y2="358.7"/>
<line class="st2" x1="97.4" y1="352.2" x2="95" y2="351.1"/>
<path d="M296.3,349.3c0-0.1,0-0.1,0-0.1c-0.6-1.1-1-2.3-1.4-3.6c0-0.1,0-0.1,0-0.1c-0.1-0.2-0.3-0.4-0.4-0.5
	c-0.3-0.5-0.8-0.9-1.2-1.3c-1.6-1.5-3.7-2.3-6.1-2.3s-4.5,0.9-6.1,2.3c-1.8,1.6-3,4-3,6.7v0.1c0,0.5,0.1,1.1,0.2,1.6
	c0.1,0.7,0.3,1.3,0.5,1.8c0,0.1,0.1,0.2,0.1,0.2c0.4,1,1.1,2,1.9,2.7v0.1c1.6,1.6,3.9,2.6,6.3,2.6c5,0,9.1-4.1,9.1-9.1
	C296.4,350,296.3,349.7,296.3,349.3z"/>
<path class="st0" d="M342.5,301.5V340c0,10.4-3,18.6-8.9,24.5c-5.9,5.9-13.9,8.8-24.1,8.8c-7.9,0-14.5-1.7-19.7-5.3
	c-0.3-0.2-0.7-0.5-1-0.8l11.8-12.8c2.4,1.7,5.4,2.6,8.9,2.6c9.4,0,15.4-6.3,15.4-17v-38.5H342.5z"/>
<path class="st1" d="M295,345.5c-0.1-0.2-0.3-0.4-0.4-0.5c-0.3-0.5-0.8-0.9-1.2-1.3c-1.6-1.5-3.7-2.3-6.1-2.3s-4.5,0.9-6.1,2.3
	c-1.8,1.6-3,4-3,6.7v0.1c0,0.5,0.1,1.1,0.2,1.6c-1.1-3.6-1.6-7.6-1.6-12.1v-38.5h17.6V340C294.4,342,294.6,343.8,295,345.5z"/>
<path class="st0" d="M296.4,350.4c0,5-4.1,9.1-9.1,9.1c-2.4,0-4.7-1-6.3-2.6v-0.1c-0.8-0.8-1.5-1.7-1.9-2.7
	c-0.1-0.1-0.1-0.1-0.1-0.2c-0.2-0.6-0.4-1.2-0.5-1.8c-0.2-0.5-0.2-1.1-0.2-1.6v-0.1c0-2.7,1.2-5.1,3-6.7c1.6-1.5,3.7-2.3,6.1-2.3
	s4.5,0.9,6.1,2.3c0.4,0.4,0.9,0.8,1.2,1.3c0.1,0.2,0.3,0.3,0.4,0.5c0,0,0,0,0,0.1c0.7,1.1,1.1,2.3,1.4,3.6c0,0.1,0,0.1,0,0.1
	C296.3,349.7,296.4,350,296.4,350.4z"/>
<path id="XMLID_172_" class="st1" d="M554.8,457.6c-2-1.9-4.4-3.4-7-4.6l-6.1,12c3,2.1,4.7,5.4,4.7,9.6c0,7.6-5.3,12.4-12.9,12.4
	v13.5c8.4,0,15.2-2.4,20.4-7.1c5.3-4.8,7.9-11,7.9-18.8C561.8,467.6,559.4,461.9,554.8,457.6z"/>
<path class="st0" d="M521.9,468.9c-0.8,1.6-1.3,3.6-1.3,5.7c0,7.6,5.3,12.4,13,12.4v13.5c-8.5,0-15.2-2.4-20.5-7.1
	c-5.2-4.8-7.7-11-7.7-18.8c0-4.9,2.1-10.3,6.2-16l20.1-27.2h18.9l-14.3,18.9l-11.9,15.5C523.3,466.7,522.5,467.7,521.9,468.9z"/>
<path id="XMLID_175_" d="M625.7,438.8c-0.2-1.4-0.7-2.6-1.5-3.7c-0.2-0.3-0.4-0.5-0.7-0.8c-0.1-0.1-0.2-0.2-0.4-0.3
	c-0.9-0.8-2-1.5-3.3-1.8h-3.8c-0.5,0.1-0.9,0.3-1.3,0.5c-0.5,0.2-0.9,0.5-1.3,0.8c-0.2,0.2-0.5,0.3-0.7,0.5
	c-1.5,1.4-2.5,3.4-2.5,5.7v0c0,2.2,0.9,4.1,2.3,5.5v0c1,1,2.2,1.6,3.5,2h3.7c0.3-0.1,0.6-0.2,0.9-0.3c0,0,0,0,0.1,0
	c1-0.4,1.9-1,2.7-1.8c1.4-1.4,2.2-3.3,2.2-5.4C625.7,439.4,625.7,439.1,625.7,438.8z"/>
<polygon class="st0" points="643.7,432.3 643.7,441.7 618.9,499.9 601.3,499.9 622.7,450.6 624.2,447.2 624.1,447.2 630.5,432.3 "/>
<path class="st1" d="M616.2,447.2h-23.8v-15h23.8c-0.5,0.1-0.9,0.3-1.3,0.5c-0.5,0.2-0.9,0.5-1.3,0.8c-0.2,0.2-0.5,0.3-0.7,0.5
	c-1.5,1.4-2.5,3.4-2.5,5.7v0c0,2.2,0.9,4.1,2.3,5.5v0C613.6,446.2,614.8,446.9,616.2,447.2z"/>
<path id="XMLID_177_" class="st1" d="M726.2,477.4h-16.9c0,0.1,0,0.2,0,0.4c0,0.2,0,0.3,0,0.5c0,4.7-4.4,8.5-10.8,8.5
	c-6.4,0-10.9-3.8-10.9-8.5c0-0.9,0.1-1.7,0.4-2.4c0.2-0.7,0.5-1.3,0.9-2c0.4-0.6,0.9-1.1,1.5-1.6c0.2-0.6,0.3-1.3,0.3-2
	c0-0.3,0-0.5,0-0.8c-0.1-0.7-0.3-1.4-0.6-2l-7.5-4.2c0,0-0.1,0-0.1,0c0.1,0,0.2,0.1,0.3,0.1c-1.3,0.5-2.5,1.1-3.5,1.8
	c-0.5,0.3-0.9,0.6-1.3,0.9c-4.8,3.3-7.2,7.9-7.2,13.9c0,6,2.5,10.9,7.6,14.6c5.1,3.6,11.8,5.5,20.3,5.5c8.5,0,15.2-1.8,20.2-5.5
	c5.1-3.7,7.6-8.6,7.6-14.6C726.4,479,726.3,478.2,726.2,477.4z M689.4,449.9c0-0.1,0-0.2,0-0.3c0-4.6,3.7-7.8,9.2-7.8
	c5.5,0,9.1,3.2,9.1,7.8c0,0.7-0.1,1.3-0.2,1.9c-0.2,0.9-0.5,1.7-1,2.4c-0.6,1-1.5,1.8-2.5,2.5c-0.1,0.4-0.1,0.8-0.1,1.3l9.3,5.2
	c-2.4-1.2-5.6-1.9-8.9-2.6c0.4,1,1,1.9,1.7,2.6v0c0.6,0.6,1.2,1,2,1.4c0.4,0.1,0.8,0.3,1.3,0.4c0,0,0.1,0,0.1,0
	c0.2,0,0.4,0.1,0.6,0.1c0,0,0.1,0,0.1,0c0.3,0,0.6,0.1,1,0.1c0.2,0,0.5,0,0.7,0h0c0.1,0,0.2,0,0.3,0c0.5-0.1,1.1-0.2,1.6-0.4
	c0,0,0,0,0.1,0c0.4-0.2,0.9-0.4,1.3-0.7c-0.2-0.1-0.4-0.2-0.6-0.3c0.8-0.4,1.6-0.8,2.3-1.2c0,0,0,0,0,0c0.1,0,0.1-0.1,0.2-0.1
	c4.6-3,6.9-7.5,6.9-13.5c0-5.7-2.4-10.3-7.1-13.8c-4.6-3.5-10.6-5.3-18-5.3c-7.5,0-13.5,1.8-18.2,5.3c-4.7,3.5-7,8.1-7,13.8
	c0,0.5,0,1,0,1.4H689.4z M687.2,464.2c-0.9-0.5-1.9-0.9-3-1h0c-0.2,0-0.5,0-0.7,0c-0.2,0-0.4,0-0.6,0c-0.1,0-0.3,0-0.4,0.1
	c1.8,0.4,3.4,0.8,4.9,1.1C687.4,464.3,687.3,464.2,687.2,464.2z"/>
<path class="st0" d="M726.2,477.4h-16.9c-0.1-4-1.7-8.1-21.8-13c-0.1-0.1-0.2-0.1-0.3-0.2c-0.9-0.5-1.9-0.9-3-1h0
	c-0.2,0-0.5,0-0.7,0c-0.2,0-0.4,0-0.6,0c-0.1,0-0.3,0-0.4,0.1c0,0-0.1,0-0.1,0c-5.6-2.7-8.7-7.1-9.1-13.3h16c0,0.2,0,0.4,0,0.6
	c0.6,6.5,7.9,8.1,14.8,9.6c0.4,1,1,1.9,1.7,2.6v0c0.6,0.6,1.2,1,2,1.4c0.4,0.1,0.8,0.3,1.3,0.4c0,0,0.1,0,0.1,0
	c0.2,0,0.4,0.1,0.6,0.1c0,0,0.1,0,0.1,0c0.3,0,0.6,0.1,1,0.1c0.2,0,0.5,0,0.7,0h0c0.1,0,0.2,0,0.3,0c0.5-0.1,1.1-0.2,1.6-0.4
	c0,0,0,0,0.1,0c0.4-0.2,0.9-0.4,1.3-0.7C721.6,466.6,725.4,471.2,726.2,477.4z"/>
<line class="st2" x1="524.3" y1="465.8" x2="521.9" y2="468.9"/>
<path id="XMLID_2_" class="st0" d="M551.4,458.6c0,3.1-1.9,5.8-4.7,6.9c0,0-0.1,0-0.1,0c-0.6,0.2-1.2,0.4-1.9,0.5h0
	c-0.2,0-0.5,0-0.7,0c-0.4,0-0.8,0-1.1-0.1c-1.6-0.2-2.9-0.9-4-2v0c-1.4-1.3-2.2-3.2-2.2-5.3v0c0-2.2,0.9-4.1,2.4-5.4
	c0.2-0.2,0.4-0.4,0.7-0.5c0.4-0.3,0.8-0.5,1.3-0.7c0.6-0.3,1.3-0.5,2-0.6c0.3-0.1,0.7-0.1,1-0.1c1.9,0,3.7,0.7,5,1.9
	c0.4,0.3,0.7,0.7,1,1.1c0.7,1,1.2,2.2,1.4,3.5C551.4,458,551.4,458.3,551.4,458.6z"/>
<path class="st0" d="M625.7,439.7c0,2.1-0.8,4-2.2,5.4c-0.8,0.8-1.7,1.4-2.7,1.8c0,0-0.1,0-0.1,0c-0.3,0.1-0.6,0.2-0.9,0.3
	c-0.3,0.1-0.5,0.1-0.8,0.1c-0.1,0-0.2,0-0.3,0h0c-0.3,0-0.5,0-0.7,0c-0.3,0-0.7,0-1-0.1c0,0-0.1,0-0.2,0c-0.2,0-0.4-0.1-0.6-0.1
	c-1.4-0.3-2.6-1-3.5-2v0c-1.4-1.4-2.3-3.3-2.3-5.5v0c0-2.3,1-4.3,2.5-5.7c0.2-0.2,0.4-0.4,0.7-0.5c0.4-0.3,0.8-0.6,1.3-0.8
	c0.4-0.2,0.8-0.3,1.3-0.5c0.3-0.1,0.5-0.1,0.8-0.2c0.1,0,0.3,0,0.4,0c0.2,0,0.4,0,0.6,0c0.3,0,0.5,0,0.7,0c0.4,0,0.8,0.1,1.2,0.2
	c1.3,0.3,2.4,0.9,3.3,1.8c0.1,0.1,0.2,0.2,0.4,0.3c0.2,0.2,0.5,0.5,0.7,0.8c0.8,1,1.3,2.3,1.5,3.7
	C625.7,439.1,625.7,439.4,625.7,439.7z"/>
<path id="XMLID_4_" class="st1" d="M760.1,474.1c2,1.9,4.4,3.4,7,4.6l6.1-12c-3-2.1-4.7-5.4-4.7-9.6c0-7.6,5.3-12.4,12.9-12.4v-13.5
	c-8.4,0-15.2,2.4-20.4,7.1c-5.3,4.8-7.9,11-7.9,18.8C753.2,464.2,755.5,469.8,760.1,474.1z"/>
<path class="st0" d="M793,462.8c0.8-1.6,1.3-3.6,1.3-5.7c0-7.6-5.3-12.4-13-12.4v-13.5c8.5,0,15.2,2.4,20.5,7.1
	c5.2,4.8,7.7,11,7.7,18.8c0,4.9-2.1,10.3-6.2,16l-20.1,27.2h-18.9l14.3-18.9l11.9-15.5C791.6,465.1,792.4,464,793,462.8z"/>
<line class="st2" x1="790.7" y1="466" x2="793" y2="462.8"/>
<path id="XMLID_3_" class="st0" d="M763.5,473.2c0-3.1,1.9-5.8,4.7-6.9c0,0,0.1,0,0.1,0c0.6-0.2,1.2-0.4,1.9-0.5h0
	c0.2,0,0.5,0,0.7,0c0.4,0,0.8,0,1.1,0.1c1.6,0.2,2.9,0.9,4,2v0c1.4,1.3,2.2,3.2,2.2,5.3v0c0,2.2-0.9,4.1-2.4,5.4
	c-0.2,0.2-0.4,0.4-0.7,0.5c-0.4,0.3-0.8,0.5-1.3,0.7c-0.6,0.3-1.3,0.5-2,0.6c-0.3,0.1-0.7,0.1-1,0.1c-1.9,0-3.7-0.7-5-1.9
	c-0.4-0.3-0.7-0.7-1-1.1c-0.7-1-1.2-2.2-1.4-3.5C763.5,473.8,763.5,473.5,763.5,473.2z"/>
<path class="st0" d="M690.7,470.2c0,0.7-0.1,1.4-0.3,2c-0.2,0.8-0.6,1.4-1,2.1c-0.2,0.3-0.5,0.6-0.8,0.9c-0.2,0.2-0.4,0.4-0.7,0.6
	c-0.5,0.5-1.1,0.8-1.8,1.1c0,0-0.1,0-0.1,0c-0.5,0.2-1,0.3-1.5,0.4c-0.1,0-0.2,0-0.3,0.1h0c-0.2,0-0.5,0-0.7,0c-0.3,0-0.6,0-1-0.1
	c0,0-0.1,0-0.1,0c-0.2,0-0.4,0-0.6-0.1c0,0-0.1,0-0.1,0c-0.4-0.1-0.8-0.3-1.3-0.4c-0.7-0.3-1.4-0.8-1.9-1.4v0
	c-0.9-0.9-1.6-2-1.9-3.2c-0.2-0.6-0.3-1.2-0.3-1.8v0c0-1.6,0.5-3.1,1.4-4.3c0.3-0.4,0.6-0.7,0.9-1c0,0,0.1-0.1,0.2-0.1
	c0.1-0.1,0.3-0.3,0.5-0.4c0,0,0.1-0.1,0.2-0.1c0.3-0.3,0.7-0.4,1.1-0.6c0.6-0.3,1.2-0.5,1.8-0.5c0,0,0.1,0,0.1,0
	c0.1,0,0.3-0.1,0.4-0.1c0.2,0,0.4,0,0.6,0c0.2,0,0.5,0,0.7,0h0c1.1,0.1,2.1,0.4,3,1c0.1,0.1,0.2,0.1,0.3,0.2
	c0.3,0.2,0.6,0.4,0.8,0.7c0.1,0.1,0.2,0.2,0.3,0.3c0.2,0.2,0.4,0.4,0.6,0.7c0.3,0.4,0.6,0.9,0.8,1.4c0.3,0.6,0.5,1.3,0.6,2
	C690.7,469.7,690.7,470,690.7,470.2z"/>
<path class="st0" d="M714.2,463.4"/>
<path class="st0" d="M718.1,457.7c0,1.6-0.5,3.1-1.5,4.3c0,0.1-0.1,0.1-0.1,0.2c0,0,0,0,0,0c-0.1,0.2-0.3,0.3-0.5,0.5
	c-0.4,0.4-0.8,0.7-1.2,1c-0.4,0.3-0.8,0.5-1.3,0.7c0,0-0.1,0-0.1,0c-0.5,0.2-1,0.3-1.6,0.4c-0.1,0-0.2,0-0.3,0h0c-0.2,0-0.5,0-0.7,0
	c-0.3,0-0.6,0-1-0.1c0,0-0.1,0-0.1,0c-0.2,0-0.4-0.1-0.6-0.1c0,0-0.1,0-0.1,0c-0.4-0.1-0.8-0.3-1.3-0.4c-0.7-0.3-1.4-0.8-2-1.4v0
	c-0.8-0.7-1.4-1.6-1.7-2.6c-0.1-0.2-0.1-0.4-0.2-0.6c-0.2-0.6-0.3-1.2-0.3-1.8v-0.1c0-0.4,0-0.9,0.1-1.3c0.2-1.2,0.8-2.3,1.5-3.2
	c0.2-0.2,0.4-0.5,0.7-0.7c0.2-0.2,0.4-0.4,0.6-0.5c0,0,0.1-0.1,0.2-0.1c0.2-0.1,0.3-0.2,0.5-0.3c0.2-0.1,0.4-0.2,0.5-0.3
	c0.6-0.3,1.3-0.5,1.9-0.5c0.1,0,0.3-0.1,0.4-0.1c0.2,0,0.4,0,0.6,0c0.2,0,0.5,0,0.7,0h0c1.1,0.1,2.1,0.4,2.9,1
	c0.4,0.2,0.8,0.5,1.1,0.8c0.1,0.1,0.2,0.2,0.3,0.3c0.2,0.2,0.4,0.4,0.6,0.7c0.7,1,1.2,2.1,1.4,3.4
	C718,457.2,718.1,457.4,718.1,457.7z"/>
<line class="st2" x1="677.1" y1="463.1" x2="690.1" y2="474.9"/>
<line class="st2" x1="703.8" y1="451.8" x2="718.1" y2="463.1"/>
<path id="XMLID_6_" class="st0" d="M104.6,49H88.9l-30.2,68.2H77l10.4-25.4l9.3-22.5l9.3,22.5H106l10.4,25.4h18.3L104.6,49z"/>
<path id="XMLID_72_" class="st0" d="M101,98.9c0,3.4-2.3,6.3-5.5,7.1h-3.7c-3.2-0.8-5.5-3.7-5.5-7.1c0-3.6,2.6-6.5,6-7.2H95
	C98.4,92.4,101,95.3,101,98.9z"/>
<path id="XMLID_78_" class="st0" d="M95,91.7h-2.7c0.5-0.1,0.9-0.1,1.4-0.1C94.1,91.6,94.6,91.6,95,91.7z"/>
<path id="XMLID_79_" class="st0" d="M95.5,106c-0.6,0.2-1.2,0.2-1.8,0.2c-0.6,0-1.2-0.1-1.8-0.2H95.5z"/>
<path id="XMLID_74_" class="st1" d="M116.4,117.2l-4.7-11.2H95.5c3.2-0.8,5.5-3.7,5.5-7.1c0-3.6-2.6-6.5-6-7.2h11L116.4,117.2z"/>
<polyline id="XMLID_8_" class="st2" points="77,117.2 87.4,91.7 96.7,69.1 106,91.7 "/>
<line class="st2" x1="673.4" y1="449.9" x2="661.5" y2="449.9"/>
<line class="st2" x1="691.9" y1="449.9" x2="689.4" y2="449.9"/>
<line class="st2" x1="734.2" y1="477.4" x2="726.2" y2="477.4"/>
<line class="st2" x1="709.3" y1="477.4" x2="701.1" y2="477.4"/>
<g>
</g>
<g>
</g>
<g>
</g>
<g>
</g>
<g>
</g>
<g>
</g>
</svg>
