<?xml version="1.0" encoding="utf-8"?>
<!-- Generator: Adobe Illustrator 19.0.0, SVG Export Plug-In . SVG Version: 6.00 Build 0)  -->
<svg version="1.1" id="Calque_1" xmlns="http://www.w3.org/2000/svg" xmlns:xlink="http://www.w3.org/1999/xlink" x="0px" y="0px"
	 viewBox="-411.9 279.5 721.9 282.5" style="enable-background:new -411.9 279.5 721.9 282.5;" xml:space="preserve">
<style type="text/css">
	.st0{fill:#FFDD00;}
	.st1{fill:none;}
</style>
<rect id="XMLID_1019_" x="-36.8" y="416.6" class="st0" width="146" height="41"/>
<path id="XMLID_1014_" d="M82.2,416.6l2.3,21.6h5.1l-2.9-21.6l-0.4-2.5c1.7-1.1,3.2-4.3,3.2-6.5v-16.8c0-3.8-3.1-6.9-7.3-6.9H66.3
	v54.3h4.7v-45.2h0.6v45.2h4.5v-21.6H77l1.8,21.6h5l-2.2-21.6l-0.1-0.6l0.6-0.2L82.2,416.6z M76.2,411.7v-0.6h5.3c0.9,0,3-1.5,3-2.8
	v-15c0-2.5-1.5-4.7-3.3-4.7h-10v-0.6h10c2.1,0,3.9,2.4,3.9,5.4v15c0,1.8-2.3,3.4-3.7,3.4L76.2,411.7L76.2,411.7z M76.2,407.5V393
	c0,0,0.8,0,1.9,0s1.5,1.1,1.5,2.8v0.4c0,2.8,0,11.5,0,11.5L76.2,407.5L76.2,407.5z"/>
<g id="XMLID_1010_">
	<path id="XMLID_1013_" d="M115.9,383.9v44.3c0,3-0.6,4.8-1.9,5.7c-1.1,0.8-2.8,0.8-4.7,0.8h-0.2c-3.9,0-6.7,0-6.7-6.5v-44.2h5.2
		c0,0,0,33.8,0,42.4c0,0.3,0,0.6,0,0.9c0,1.1,0.2,2.2,1.5,2.2c1.3,0,1.5-1,1.5-2.2v-0.9c0-8.6,0-42.4,0-42.4H115.9z"/>
	<path id="XMLID_1012_" d="M121.2,383.9c0,0,0,40.7,0,45.7c0,5-2.9,9.3-11.9,9.3c-9.1,0-11.9-4.4-11.9-9.3c0-4.9,0-45.7,0-45.7h4.6
		v44.3c0,7.1,3.6,7.1,7.3,7.1h0.2c1.8,0,3.6,0,4.9-0.9c1.5-1,2.1-3,2.1-6.2v-44.3H121.2z"/>
	<path id="XMLID_1011_" class="st1" d="M110.8,426.3c0,0.4,0,0.6,0,0.9c0,0.5,0,0.8,0,1"/>
</g>
<path id="XMLID_1002_" d="M151.6,392.9v-9h-22.2v54.3h22.2v-9h-11.9v-12.6h9.1v-9h-9.2V393L151.6,392.9L151.6,392.9z M147.4,432.9
	v0.6h-13.2v-0.6H147.4z M134.3,429.3v-12.7h0.6v12.8L134.3,429.3L134.3,429.3z M145.5,411.4v0.6h-11.3v-0.6H145.5z M134.3,407.5v-15
	h0.6v15C134.9,407.5,134.3,407.5,134.3,407.5z M134.3,388.3v-0.7h13.2v0.6L134.3,388.3L134.3,388.3z"/>
<path id="XMLID_1001_" class="st1" d="M248.8,447.7"/>
<path id="XMLID_1000_" d="M97.2,436.5c0,1.6-1.3,2.9-2.9,2.9s-2.9-1.3-2.9-2.9c0-1.6,1.3-2.9,2.9-2.9S97.2,434.9,97.2,436.5z"/>
<path id="XMLID_999_" d="M127.2,436.5c0,1.6-1.3,2.9-2.9,2.9c-1.6,0-2.9-1.3-2.9-2.9c0-1.6,1.3-2.9,2.9-2.9
	C125.9,433.6,127.2,434.9,127.2,436.5z"/>
<path id="XMLID_997_" d="M-22.1,389.8c0.2,0,0.5,0,0.8,0.1v-3.2h-1.3c-3.9,0-5.9,1.8-5.9,5.6v0.8h-2.1v3.1h2.1v11.6h3.4V396h3.5
	v-3.1h-3.5v-0.2C-25.2,390.6-24.2,389.8-22.1,389.8z"/>
<path id="XMLID_993_" d="M-15.8,402.6c0.6,0.3,1.4,0.5,2.2,0.5c1.5,0,2.8-0.5,3.9-1.5c1.1-1,1.7-2.2,1.7-3.8c0-1.5-0.5-2.8-1.6-3.8
	c-1.1-1-2.4-1.5-4-1.5s-2.9,0.5-4,1.5s-1.6,2.4-1.6,4.1v9.3h10.6v-3h-7.3L-15.8,402.6L-15.8,402.6z M-15.3,396.3
	c0.8-0.8,2.4-0.8,3.2,0c0.8,0.8,0.8,2.1,0,3c-0.8,0.8-2.4,0.8-3.2,0C-16.1,398.4-16.1,397.1-15.3,396.3z"/>
<path id="XMLID_991_" d="M-1,398.2c-0.8-0.5-1.3-1-1.3-1.5c0-0.7,0.5-1.1,1.7-1.1s2.4,0.6,3.6,1.9l1.9-2.6c-1.4-1.6-3.2-2.4-5.5-2.4
	c-1.4,0-2.6,0.4-3.6,1.2c-1,0.8-1.5,1.8-1.5,3.1c0,1.6,0.9,3,2.8,4.1l4.6,2.7c-0.3,0.8-0.9,1.3-2.1,1.3c-1.5,0-2.8-0.8-4.2-2.2
	l-1.9,2.6c1.4,1.8,3.4,2.8,5.9,2.8c2,0,3.4-0.5,4.4-1.7s1.5-2.5,1.5-4.1L-1,398.2z"/>
<path id="XMLID_989_" d="M17.3,396v-3.1h-3.8V388h-3.4v4.9H7.6v3.1h2.4v11.6h7v-3.2h-3.7V396H17.3z"/>
<path id="XMLID_986_" d="M20.7,392.9v14.7h3.4v-14.7H20.7z M20.6,388v3.8h3.6V388H20.6z"/>
<path id="XMLID_984_" d="M36.6,392.9l-3.4,10.3l-3.4-10.3h-3.7l5.2,14.6H35l5.2-14.6C40.2,392.9,36.6,392.9,36.6,392.9z"/>
<path id="XMLID_980_" d="M42.4,392.9v3h7.3v2.3h-3.4c-3.1,0-5.4,1.9-5.4,4.7c0,2.8,2.1,4.7,5.4,4.7h6.7v-14.6H42.4z M49.8,404.6
	h-3.4c-1.5,0-2.2-0.6-2.2-1.8c0-1.1,0.7-1.8,2.2-1.8h3.4V404.6z"/>
<path id="XMLID_978_" d="M56.2,387.8v19.7h3.4v-19.7H56.2z"/>
<path id="XMLID_974_" d="M42.1,416.6v8c-1.1-1-2.4-1.5-4.1-1.5c-2.1,0-3.8,0.7-5.1,2.1c-1.4,1.5-2,3.3-2,5.5c0,2.2,0.7,4.1,2,5.5
	c1.4,1.5,3.1,2.1,5.1,2.1c1.7,0,3.1-0.5,4.1-1.7v1.4h3.4v-21.6H42.1z M38.3,435.5c-2.4,0-3.9-2-3.9-4.7c0-2.6,1.5-4.7,3.9-4.7
	c2.5,0,3.9,2.1,3.9,4.7S40.8,435.5,38.3,435.5z"/>
<path id="XMLID_970_" d="M51.9,433.3c0.6,0.3,1.4,0.5,2.2,0.5c1.5,0,2.8-0.5,3.9-1.5c1.1-1,1.6-2.2,1.6-3.8s-0.5-2.8-1.6-3.8
	c-1.1-1-2.4-1.5-3.9-1.5c-1.5,0-2.9,0.5-4,1.5c-1.1,1-1.6,2.4-1.6,4.1v9.3h10.6v-3.1h-7.3L51.9,433.3L51.9,433.3z M52.5,427
	c0.8-0.8,2.4-0.8,3.2,0c0.8,0.8,0.8,2.1,0,3s-2.4,0.8-3.2,0C51.6,429.1,51.6,427.8,52.5,427z"/>
<line id="XMLID_901_" class="st1" x1="66.2" y1="392.9" x2="66.2" y2="384"/>
<g id="XMLID_905_">
	<path id="XMLID_906_" d="M-27.4,449v-0.2c0-0.5-0.1-0.8-0.3-1.1c-0.2-0.2-0.5-0.4-0.8-0.4c-0.5,0-0.8,0.2-1,0.5s-0.3,0.8-0.3,1.5
		v2.3h-0.8v-4.9h0.7v0.8c0.1-0.2,0.3-0.5,0.5-0.6c0.2-0.2,0.5-0.2,0.9-0.2c0.5,0,1,0.2,1.3,0.5c0.3,0.4,0.5,0.9,0.5,1.5v0.2
		L-27.4,449z"/>
	<path id="XMLID_913_" d="M-22.8,448.4v-0.2c0-0.5,0.2-0.8,0.5-1.1c0.4-0.3,0.8-0.5,1.4-0.5c0.5,0,1,0.2,1.3,0.5s0.5,0.8,0.5,1.3v2
		c0,0.2,0.1,0.4,0.2,0.5c0.1,0.1,0.2,0.2,0.5,0.2h0.3v0.6c-0.2,0.1-0.4,0.1-0.6,0.1c-0.2,0-0.5-0.1-0.6-0.2
		c-0.2-0.2-0.2-0.3-0.3-0.5c-0.4,0.5-0.9,0.8-1.7,0.8c-0.5,0-0.9-0.2-1.2-0.4c-0.3-0.3-0.5-0.6-0.5-1c0-0.5,0.2-0.8,0.5-1.1
		c0.3-0.2,0.8-0.5,1.3-0.5l1.5-0.2v-0.2c0-0.4-0.1-0.6-0.3-0.8c-0.2-0.2-0.5-0.3-0.8-0.3c-0.4,0-0.6,0.1-0.8,0.3
		c-0.2,0.2-0.3,0.5-0.3,0.8L-22.8,448.4z M-22.3,450.4c0,0.2,0.1,0.4,0.2,0.5c0.2,0.2,0.4,0.2,0.7,0.2c0.5,0,0.8-0.2,1.1-0.4
		c0.2-0.2,0.5-0.6,0.5-1.1v-0.4l-1.5,0.2c-0.3,0.1-0.6,0.2-0.8,0.3C-22.2,449.9-22.3,450.1-22.3,450.4L-22.3,450.4z"/>
	<path id="XMLID_916_" d="M-10.1,449.2c0,0.7-0.2,1.3-0.6,1.8c-0.5,0.5-1,0.8-1.6,0.8c-0.4,0-0.7-0.1-1-0.2
		c-0.3-0.2-0.5-0.4-0.7-0.6v2.7h-0.8v-6.8h0.7v0.8c0.4-0.6,0.9-0.8,1.7-0.8c0.7,0,1.2,0.2,1.6,0.8
		C-10.4,448.1-10.1,448.5-10.1,449.2L-10.1,449.2z M-11.3,447.9c-0.3-0.4-0.7-0.5-1.1-0.5c-0.5,0-0.8,0.2-1.1,0.5
		c-0.3,0.4-0.5,0.8-0.5,1.3c0,0.5,0.2,1,0.5,1.3c0.3,0.3,0.7,0.5,1.1,0.5c0.5,0,0.8-0.2,1.1-0.5s0.5-0.8,0.5-1.3
		C-10.8,448.6-11,448.3-11.3,447.9z"/>
	<path id="XMLID_919_" d="M1.5,448.4v-0.2c0-0.5,0.2-0.8,0.5-1.1s0.8-0.5,1.4-0.5s1,0.2,1.3,0.5s0.5,0.8,0.5,1.3v2
		c0,0.2,0.1,0.4,0.2,0.5c0.1,0.1,0.2,0.2,0.5,0.2h0.3v0.6c-0.2,0.1-0.4,0.1-0.6,0.1c-0.2,0-0.5-0.1-0.6-0.2
		c-0.2-0.2-0.2-0.3-0.3-0.5c-0.4,0.5-0.9,0.8-1.7,0.8c-0.5,0-0.9-0.2-1.2-0.4c-0.3-0.3-0.5-0.6-0.5-1c0-0.5,0.2-0.8,0.5-1.1
		c0.3-0.2,0.8-0.5,1.3-0.5l1.5-0.2v-0.2c0-0.4-0.1-0.6-0.3-0.8c-0.2-0.2-0.5-0.3-0.8-0.3s-0.6,0.1-0.8,0.3c-0.2,0.2-0.3,0.5-0.3,0.8
		L1.5,448.4z M2,450.4c0,0.2,0.1,0.4,0.2,0.5c0.2,0.2,0.4,0.2,0.7,0.2c0.5,0,0.8-0.2,1.1-0.4c0.2-0.2,0.5-0.7,0.5-1.1v-0.4l-1.5,0.2
		c-0.3,0.1-0.6,0.2-0.8,0.3C2.1,449.9,2,450.1,2,450.4L2,450.4z"/>
	<path id="XMLID_922_" d="M10.4,447.5c0.2-0.2,0.4-0.5,0.7-0.6c0.3-0.2,0.6-0.2,0.9-0.2c0.6,0,1.1,0.2,1.5,0.5s0.5,0.9,0.5,1.6v2.8
		h-0.8v-2.9c0-0.5-0.1-0.8-0.3-1.1c-0.2-0.2-0.5-0.4-0.9-0.4c-0.5,0-0.8,0.2-1.1,0.5c-0.2,0.4-0.4,0.8-0.4,1.4v2.4H9.8v-4.9h0.7
		L10.4,447.5z"/>
	<path id="XMLID_924_" d="M17.4,449.2c0-0.7,0.2-1.3,0.6-1.8c0.4-0.5,1-0.8,1.6-0.8c0.4,0,0.7,0.1,1,0.2c0.3,0.2,0.5,0.4,0.7,0.6
		v-2.8h0.8v7h-0.7v-0.8c-0.4,0.6-0.9,0.8-1.7,0.8c-0.7,0-1.2-0.2-1.6-0.8C17.6,450.5,17.4,449.9,17.4,449.2L17.4,449.2z M18.6,450.5
		c0.3,0.4,0.7,0.5,1.1,0.5s0.8-0.2,1.1-0.5c0.3-0.4,0.5-0.8,0.5-1.3c0-0.5-0.2-1-0.5-1.3c-0.3-0.3-0.6-0.5-1.1-0.5
		c-0.5,0-0.8,0.2-1.1,0.5c-0.3,0.4-0.5,0.8-0.5,1.3C18.1,449.8,18.3,450.2,18.6,450.5z"/>
	<path id="XMLID_928_" d="M37.3,451.1c-0.4,0.5-0.9,0.7-1.5,0.7c-1.2,0-1.8-0.7-1.8-2.1v-2.8h0.8v2.8c0,0.5,0.1,0.8,0.3,1.1
		c0.2,0.2,0.5,0.4,0.9,0.4s0.8-0.2,1.1-0.5c0.2-0.3,0.4-0.8,0.4-1.4v-2.4h0.8v4.9h-0.7v-0.6H37.3z"/>
	<path id="XMLID_930_" d="M45.6,449v-0.2c0-0.5-0.1-0.8-0.3-1.1c-0.2-0.2-0.5-0.4-0.8-0.4c-0.5,0-0.8,0.2-1,0.5
		c-0.2,0.4-0.3,0.8-0.3,1.5v2.3h-0.8v-4.9h0.7v0.8c0.1-0.2,0.3-0.5,0.5-0.6c0.3-0.2,0.5-0.3,0.8-0.3c0.5,0,1,0.2,1.3,0.5
		s0.5,0.9,0.5,1.5v0.2L45.6,449z"/>
	<path id="XMLID_932_" d="M54.8,449.2c0,0.7-0.2,1.3-0.6,1.8c-0.5,0.5-1,0.8-1.6,0.8c-0.7,0-1.3-0.3-1.7-0.8v0.8h-0.7v-7h0.8v2.8
		c0.2-0.2,0.4-0.5,0.7-0.6c0.3-0.2,0.6-0.2,1-0.2c0.7,0,1.2,0.2,1.6,0.8C54.5,447.9,54.8,448.5,54.8,449.2L54.8,449.2z M53.5,447.9
		c-0.3-0.4-0.7-0.5-1.1-0.5c-0.5,0-0.8,0.2-1.1,0.5c-0.3,0.4-0.5,0.8-0.5,1.3c0,0.5,0.2,1,0.5,1.3c0.3,0.3,0.7,0.5,1.1,0.5
		c0.5,0,0.8-0.2,1.1-0.5c0.3-0.4,0.5-0.8,0.5-1.3C54,448.6,53.8,448.3,53.5,447.9z"/>
	<path id="XMLID_935_" d="M58.3,448.4v-0.2c0-0.5,0.2-0.8,0.5-1.1s0.8-0.5,1.4-0.5c0.5,0,1,0.2,1.3,0.5s0.5,0.8,0.5,1.3v2
		c0,0.2,0.1,0.4,0.2,0.5c0.1,0.1,0.2,0.2,0.5,0.2h0.3v0.6c-0.2,0.1-0.4,0.1-0.6,0.1c-0.2,0-0.5-0.1-0.6-0.2
		c-0.2-0.2-0.2-0.3-0.3-0.5c-0.4,0.5-0.9,0.8-1.7,0.8c-0.5,0-0.9-0.2-1.2-0.4c-0.3-0.3-0.5-0.6-0.5-1c0-0.5,0.2-0.8,0.5-1.1
		c0.3-0.2,0.8-0.5,1.3-0.5l1.5-0.2v-0.2c0-0.4-0.1-0.6-0.3-0.8c-0.2-0.2-0.5-0.3-0.8-0.3c-0.4,0-0.6,0.1-0.8,0.3
		c-0.2,0.2-0.3,0.5-0.3,0.8L58.3,448.4z M58.8,450.4c0,0.2,0.1,0.4,0.2,0.5c0.2,0.2,0.4,0.2,0.7,0.2c0.5,0,0.8-0.2,1.1-0.4
		c0.2-0.2,0.5-0.6,0.5-1.1v-0.4l-1.5,0.2c-0.3,0.1-0.6,0.2-0.8,0.3C58.9,449.9,58.8,450.1,58.8,450.4L58.8,450.4z"/>
	<path id="XMLID_938_" d="M67.2,447.5c0.2-0.2,0.4-0.5,0.7-0.6c0.3-0.2,0.6-0.2,0.9-0.2c0.6,0,1.1,0.2,1.5,0.5
		c0.3,0.4,0.5,0.9,0.5,1.6v2.8H70v-2.9c0-0.5-0.1-0.8-0.3-1.1c-0.2-0.2-0.5-0.4-0.9-0.4c-0.5,0-0.8,0.2-1.1,0.5
		c-0.2,0.3-0.4,0.8-0.4,1.4v2.4h-0.8v-4.9h0.7L67.2,447.5z"/>
	<path id="XMLID_940_" d="M83.2,449.5c0,0.5,0.2,0.9,0.5,1.2c0.3,0.3,0.7,0.5,1.1,0.5c0.5,0,1-0.2,1.4-0.7l0.5,0.5
		c-0.5,0.6-1.1,0.9-1.9,0.9c-0.7,0-1.3-0.2-1.8-0.7c-0.5-0.5-0.7-1.1-0.7-1.8s0.2-1.4,0.6-1.8c0.4-0.5,0.9-0.8,1.6-0.8
		c0.5,0,0.9,0.2,1.2,0.4c0.3,0.2,0.6,0.5,0.7,0.9c0.2,0.4,0.2,0.8,0.2,1.1v0.3L83.2,449.5z M84.7,447.3c-0.4,0-0.8,0.2-1,0.4
		c-0.2,0.3-0.4,0.6-0.5,1.1h2.8c0-0.5-0.2-0.8-0.4-1.1C85.4,447.4,85.1,447.4,84.7,447.3L84.7,447.3z"/>
	<path id="XMLID_943_" d="M92.3,449.6c-0.5-0.1-0.8-0.2-1.1-0.5c-0.3-0.2-0.4-0.5-0.4-0.9c0-0.5,0.2-0.8,0.5-1.1
		c0.4-0.2,0.8-0.4,1.3-0.4c0.4,0,0.8,0.1,1.1,0.3c0.4,0.2,0.7,0.5,0.8,0.8l-0.5,0.4c-0.4-0.5-0.8-0.8-1.5-0.8
		c-0.3,0-0.5,0.1-0.8,0.2c-0.2,0.2-0.3,0.3-0.3,0.5c0,0.4,0.3,0.6,0.8,0.7l0.9,0.2c0.5,0.1,0.8,0.2,1.1,0.5c0.3,0.2,0.4,0.5,0.4,0.9
		c0,0.5-0.2,0.8-0.6,1.1c-0.4,0.3-0.8,0.4-1.5,0.4c-0.5,0-0.8-0.1-1.2-0.2c-0.4-0.2-0.7-0.4-0.9-0.7l0.6-0.5
		c0.4,0.5,0.8,0.8,1.5,0.8c0.4,0,0.7-0.1,0.9-0.2s0.4-0.3,0.4-0.5c0-0.2-0.1-0.4-0.2-0.5c-0.2-0.2-0.4-0.2-0.6-0.2L92.3,449.6z"/>
	<path id="XMLID_945_" d="M101.4,451.8c-0.5,0-0.8-0.2-1.1-0.5c-0.3-0.3-0.5-0.8-0.5-1.4v-2.5h-1.5v-0.7h1.5v-1.4h0.8v1.4h2.5v0.7
		h-2.5v2.5c0,0.4,0.1,0.7,0.2,0.8c0.2,0.2,0.4,0.3,0.7,0.3c0.2,0,0.5-0.1,0.6-0.2c0.2-0.2,0.2-0.3,0.3-0.5h0.7
		c-0.1,0.4-0.2,0.7-0.5,1C102.2,451.6,101.8,451.8,101.4,451.8L101.4,451.8z"/>
	<path id="XMLID_947_" d="M107.7,447.5c0.2-0.2,0.4-0.5,0.6-0.6c0.3-0.2,0.6-0.2,0.9-0.2c0.6,0,1.1,0.2,1.5,0.5
		c0.3,0.4,0.5,0.9,0.5,1.6v2.8h-0.8v-2.9c0-0.5-0.1-0.8-0.3-1.1c-0.2-0.2-0.5-0.4-0.9-0.4c-0.5,0-0.8,0.2-1.1,0.5
		c-0.2,0.3-0.4,0.8-0.4,1.4v2.4H107v-7h0.8L107.7,447.5z"/>
	<path id="XMLID_949_" d="M115.7,449.5c0,0.5,0.2,0.9,0.5,1.2c0.3,0.3,0.7,0.5,1.1,0.5c0.5,0,1-0.2,1.4-0.7l0.5,0.5
		c-0.5,0.6-1.1,0.9-1.9,0.9c-0.7,0-1.3-0.2-1.8-0.7c-0.5-0.5-0.7-1.1-0.7-1.8s0.2-1.4,0.6-1.8c0.4-0.5,0.9-0.8,1.6-0.8
		c0.5,0,0.9,0.2,1.2,0.4c0.3,0.2,0.6,0.5,0.7,0.9c0.2,0.4,0.2,0.8,0.2,1.1v0.3L115.7,449.5z M117.1,447.3c-0.4,0-0.8,0.2-1,0.4
		c-0.2,0.3-0.4,0.6-0.5,1.1h2.8c0-0.5-0.2-0.8-0.4-1.1C117.9,447.4,117.6,447.4,117.1,447.3L117.1,447.3z"/>
	<path id="XMLID_952_" d="M125.7,451.8c-0.5,0-0.8-0.2-1.1-0.5c-0.3-0.3-0.5-0.8-0.5-1.4v-2.5h-1.5v-0.7h1.5v-1.4h0.8v1.4h2.5v0.7
		h-2.5v2.5c0,0.4,0.1,0.7,0.2,0.8c0.2,0.2,0.4,0.3,0.7,0.3c0.2,0,0.5-0.1,0.6-0.2c0.2-0.2,0.2-0.3,0.3-0.5h0.7
		c-0.1,0.4-0.2,0.7-0.5,1C126.5,451.6,126.2,451.8,125.7,451.8L125.7,451.8z"/>
	<path id="XMLID_954_" d="M133.9,446.8v4.2h1.8v0.7h-4.5V451h1.9v-3.5h-1.9v-0.7H133.9z M132.9,444.6c0.2-0.2,0.4-0.2,0.6-0.2
		s0.4,0.1,0.6,0.2s0.2,0.4,0.2,0.6c0,0.2-0.1,0.4-0.2,0.6c-0.2,0.2-0.4,0.2-0.6,0.2s-0.4-0.1-0.6-0.2c-0.2-0.2-0.2-0.4-0.2-0.6
		C132.7,444.9,132.7,444.7,132.9,444.6z"/>
	<path id="XMLID_957_" d="M143.8,450.2c-0.1,0.5-0.3,0.8-0.7,1.1c-0.4,0.3-0.8,0.5-1.5,0.5c-0.7,0-1.3-0.2-1.8-0.7
		c-0.5-0.5-0.7-1.1-0.7-1.8s0.2-1.4,0.7-1.8s1.1-0.8,1.8-0.8c0.5,0,1,0.2,1.4,0.5s0.6,0.6,0.8,1.1l-0.7,0.2
		c-0.1-0.3-0.3-0.5-0.5-0.8c-0.2-0.2-0.5-0.3-0.9-0.3c-0.5,0-0.9,0.2-1.2,0.5s-0.5,0.8-0.5,1.4c0,0.5,0.2,1,0.5,1.4
		c0.3,0.4,0.7,0.5,1.2,0.5c0.8,0,1.3-0.4,1.5-1.1L143.8,450.2z"/>
	<path id="XMLID_959_" d="M149,449.6c-0.5-0.1-0.8-0.2-1.1-0.5c-0.3-0.2-0.4-0.5-0.4-0.9c0-0.5,0.2-0.8,0.5-1.1
		c0.4-0.2,0.8-0.4,1.3-0.4c0.4,0,0.8,0.1,1.1,0.3c0.4,0.2,0.7,0.5,0.8,0.8l-0.6,0.4c-0.4-0.5-0.8-0.8-1.5-0.8
		c-0.3,0-0.5,0.1-0.8,0.2c-0.2,0.2-0.3,0.3-0.3,0.5c0,0.4,0.3,0.6,0.8,0.7l0.9,0.2c0.5,0.1,0.8,0.2,1.1,0.5c0.3,0.2,0.4,0.5,0.4,0.9
		c0,0.5-0.2,0.8-0.6,1.1s-0.8,0.4-1.5,0.4c-0.5,0-0.8-0.1-1.2-0.2c-0.4-0.2-0.7-0.4-0.9-0.7l0.6-0.5c0.4,0.5,0.8,0.8,1.5,0.8
		c0.4,0,0.7-0.1,0.9-0.2c0.2-0.2,0.4-0.3,0.4-0.5c0-0.2-0.1-0.4-0.2-0.5c-0.2-0.2-0.4-0.2-0.6-0.2L149,449.6z"/>
</g>
<rect id="XMLID_106_" x="-36.8" y="416.6" class="st0" width="146" height="41"/>
<path id="XMLID_101_" d="M82.2,416.6l2.3,21.6h5.1l-2.9-21.6l-0.4-2.5c1.7-1.1,3.2-4.3,3.2-6.5v-16.8c0-3.8-3.1-6.9-7.3-6.9H66.3
	v54.3h4.7v-45.2h0.6v45.2h4.5v-21.6H77l1.8,21.6h5l-2.2-21.6l-0.1-0.6l0.6-0.2L82.2,416.6z M76.2,411.7v-0.6h5.3c0.9,0,3-1.5,3-2.8
	v-15c0-2.5-1.5-4.7-3.3-4.7h-10v-0.6h10c2.1,0,3.9,2.4,3.9,5.4v15c0,1.8-2.3,3.4-3.7,3.4L76.2,411.7L76.2,411.7z M76.2,407.5V393
	c0,0,0.8,0,1.9,0s1.5,1.1,1.5,2.8v0.4c0,2.8,0,11.5,0,11.5L76.2,407.5L76.2,407.5z"/>
<g id="XMLID_97_">
	<path id="XMLID_100_" d="M115.9,383.9v44.3c0,3-0.6,4.8-1.9,5.7c-1.1,0.8-2.8,0.8-4.7,0.8h-0.2c-3.9,0-6.7,0-6.7-6.5v-44.2h5.2
		c0,0,0,33.8,0,42.4c0,0.3,0,0.6,0,0.9c0,1.1,0.2,2.2,1.5,2.2c1.3,0,1.5-1,1.5-2.2v-0.9c0-8.6,0-42.4,0-42.4H115.9z"/>
	<path id="XMLID_99_" d="M121.2,383.9c0,0,0,40.7,0,45.7c0,5-2.9,9.3-11.9,9.3c-9.1,0-11.9-4.4-11.9-9.3c0-4.9,0-45.7,0-45.7h4.6
		v44.3c0,7.1,3.6,7.1,7.3,7.1h0.2c1.8,0,3.6,0,4.9-0.9c1.5-1,2.1-3,2.1-6.2v-44.3H121.2z"/>
	<path id="XMLID_98_" class="st1" d="M110.8,426.3c0,0.4,0,0.6,0,0.9c0,0.5,0,0.8,0,1"/>
</g>
<path id="XMLID_89_" d="M151.6,392.9v-9h-22.2v54.3h22.2v-9h-11.9v-12.6h9.1v-9h-9.2V393L151.6,392.9L151.6,392.9z M147.4,432.9v0.6
	h-13.2v-0.6H147.4z M134.3,429.3v-12.7h0.6v12.8L134.3,429.3L134.3,429.3z M145.5,411.4v0.6h-11.3v-0.6H145.5z M134.3,407.5v-15h0.6
	v15C134.9,407.5,134.3,407.5,134.3,407.5z M134.3,388.3v-0.7h13.2v0.6L134.3,388.3L134.3,388.3z"/>
<path id="XMLID_88_" class="st1" d="M248.8,447.7"/>
<path id="XMLID_87_" d="M97.2,436.5c0,1.6-1.3,2.9-2.9,2.9s-2.9-1.3-2.9-2.9c0-1.6,1.3-2.9,2.9-2.9S97.2,434.9,97.2,436.5z"/>
<path id="XMLID_86_" d="M127.2,436.5c0,1.6-1.3,2.9-2.9,2.9c-1.6,0-2.9-1.3-2.9-2.9c0-1.6,1.3-2.9,2.9-2.9
	C125.9,433.6,127.2,434.9,127.2,436.5z"/>
<path id="XMLID_84_" d="M-22.1,389.8c0.2,0,0.5,0,0.8,0.1v-3.2h-1.3c-3.9,0-5.9,1.8-5.9,5.6v0.8h-2.1v3.1h2.1v11.6h3.4V396h3.5v-3.1
	h-3.5v-0.2C-25.2,390.6-24.2,389.8-22.1,389.8z"/>
<path id="XMLID_80_" d="M-15.8,402.6c0.6,0.3,1.4,0.5,2.2,0.5c1.5,0,2.8-0.5,3.9-1.5c1.1-1,1.7-2.2,1.7-3.8c0-1.5-0.5-2.8-1.6-3.8
	c-1.1-1-2.4-1.5-4-1.5s-2.9,0.5-4,1.5s-1.6,2.4-1.6,4.1v9.3h10.6v-3h-7.3L-15.8,402.6L-15.8,402.6z M-15.3,396.3
	c0.8-0.8,2.4-0.8,3.2,0c0.8,0.8,0.8,2.1,0,3c-0.8,0.8-2.4,0.8-3.2,0C-16.1,398.4-16.1,397.1-15.3,396.3z"/>
<path id="XMLID_78_" d="M-1,398.2c-0.8-0.5-1.3-1-1.3-1.5c0-0.7,0.5-1.1,1.7-1.1s2.4,0.6,3.6,1.9l1.9-2.6c-1.4-1.6-3.2-2.4-5.5-2.4
	c-1.4,0-2.6,0.4-3.6,1.2c-1,0.8-1.5,1.8-1.5,3.1c0,1.6,0.9,3,2.8,4.1l4.6,2.7c-0.3,0.8-0.9,1.3-2.1,1.3c-1.5,0-2.8-0.8-4.2-2.2
	l-1.9,2.6c1.4,1.8,3.4,2.8,5.9,2.8c2,0,3.4-0.5,4.4-1.7s1.5-2.5,1.5-4.1L-1,398.2z"/>
<path id="XMLID_76_" d="M17.3,396v-3.1h-3.8V388h-3.4v4.9H7.6v3.1h2.4v11.6h7v-3.2h-3.7V396H17.3z"/>
<path id="XMLID_73_" d="M20.7,392.9v14.7h3.4v-14.7H20.7z M20.6,388v3.8h3.6V388H20.6z"/>
<path id="XMLID_71_" d="M36.6,392.9l-3.4,10.3l-3.4-10.3h-3.7l5.2,14.6H35l5.2-14.6C40.2,392.9,36.6,392.9,36.6,392.9z"/>
<path id="XMLID_67_" d="M42.4,392.9v3h7.3v2.3h-3.4c-3.1,0-5.4,1.9-5.4,4.7c0,2.8,2.1,4.7,5.4,4.7h6.7v-14.6H42.4z M49.8,404.6h-3.4
	c-1.5,0-2.2-0.6-2.2-1.8c0-1.1,0.7-1.8,2.2-1.8h3.4V404.6z"/>
<path id="XMLID_65_" d="M56.2,387.8v19.7h3.4v-19.7H56.2z"/>
<path id="XMLID_61_" d="M42.1,416.6v8c-1.1-1-2.4-1.5-4.1-1.5c-2.1,0-3.8,0.7-5.1,2.1c-1.4,1.5-2,3.3-2,5.5c0,2.2,0.7,4.1,2,5.5
	c1.4,1.5,3.1,2.1,5.1,2.1c1.7,0,3.1-0.5,4.1-1.7v1.4h3.4v-21.6H42.1z M38.3,435.5c-2.4,0-3.9-2-3.9-4.7c0-2.6,1.5-4.7,3.9-4.7
	c2.5,0,3.9,2.1,3.9,4.7S40.8,435.5,38.3,435.5z"/>
<path id="XMLID_57_" d="M51.9,433.3c0.6,0.3,1.4,0.5,2.2,0.5c1.5,0,2.8-0.5,3.9-1.5c1.1-1,1.6-2.2,1.6-3.8s-0.5-2.8-1.6-3.8
	c-1.1-1-2.4-1.5-3.9-1.5c-1.5,0-2.9,0.5-4,1.5c-1.1,1-1.6,2.4-1.6,4.1v9.3h10.6v-3.1h-7.3L51.9,433.3L51.9,433.3z M52.5,427
	c0.8-0.8,2.4-0.8,3.2,0c0.8,0.8,0.8,2.1,0,3s-2.4,0.8-3.2,0C51.6,429.1,51.6,427.8,52.5,427z"/>
<line id="XMLID_52_" class="st1" x1="66.2" y1="392.9" x2="66.2" y2="384"/>
<g id="XMLID_1_">
	<path id="XMLID_49_" d="M-27.4,449v-0.2c0-0.5-0.1-0.8-0.3-1.1c-0.2-0.2-0.5-0.4-0.8-0.4c-0.5,0-0.8,0.2-1,0.5s-0.3,0.8-0.3,1.5
		v2.3h-0.8v-4.9h0.7v0.8c0.1-0.2,0.3-0.5,0.5-0.6c0.2-0.2,0.5-0.2,0.9-0.2c0.5,0,1,0.2,1.3,0.5c0.3,0.4,0.5,0.9,0.5,1.5v0.2
		L-27.4,449z"/>
	<path id="XMLID_46_" d="M-22.8,448.4v-0.2c0-0.5,0.2-0.8,0.5-1.1c0.4-0.3,0.8-0.5,1.4-0.5c0.5,0,1,0.2,1.3,0.5s0.5,0.8,0.5,1.3v2
		c0,0.2,0.1,0.4,0.2,0.5c0.1,0.1,0.2,0.2,0.5,0.2h0.3v0.6c-0.2,0.1-0.4,0.1-0.6,0.1c-0.2,0-0.5-0.1-0.6-0.2
		c-0.2-0.2-0.2-0.3-0.3-0.5c-0.4,0.5-0.9,0.8-1.7,0.8c-0.5,0-0.9-0.2-1.2-0.4c-0.3-0.3-0.5-0.6-0.5-1c0-0.5,0.2-0.8,0.5-1.1
		c0.3-0.2,0.8-0.5,1.3-0.5l1.5-0.2v-0.2c0-0.4-0.1-0.6-0.3-0.8c-0.2-0.2-0.5-0.3-0.8-0.3c-0.4,0-0.6,0.1-0.8,0.3
		c-0.2,0.2-0.3,0.5-0.3,0.8L-22.8,448.4z M-22.3,450.4c0,0.2,0.1,0.4,0.2,0.5c0.2,0.2,0.4,0.2,0.7,0.2c0.5,0,0.8-0.2,1.1-0.4
		c0.2-0.2,0.5-0.6,0.5-1.1v-0.4l-1.5,0.2c-0.3,0.1-0.6,0.2-0.8,0.3C-22.2,449.9-22.3,450.1-22.3,450.4L-22.3,450.4z"/>
	<path id="XMLID_43_" d="M-10.1,449.2c0,0.7-0.2,1.3-0.6,1.8c-0.5,0.5-1,0.8-1.6,0.8c-0.4,0-0.7-0.1-1-0.2c-0.3-0.2-0.5-0.4-0.7-0.6
		v2.7h-0.8v-6.8h0.7v0.8c0.4-0.6,0.9-0.8,1.7-0.8c0.7,0,1.2,0.2,1.6,0.8C-10.4,448.1-10.1,448.5-10.1,449.2L-10.1,449.2z
		 M-11.3,447.9c-0.3-0.4-0.7-0.5-1.1-0.5c-0.5,0-0.8,0.2-1.1,0.5c-0.3,0.4-0.5,0.8-0.5,1.3c0,0.5,0.2,1,0.5,1.3
		c0.3,0.3,0.7,0.5,1.1,0.5c0.5,0,0.8-0.2,1.1-0.5s0.5-0.8,0.5-1.3C-10.8,448.6-11,448.3-11.3,447.9z"/>
	<path id="XMLID_40_" d="M1.5,448.4v-0.2c0-0.5,0.2-0.8,0.5-1.1s0.8-0.5,1.4-0.5s1,0.2,1.3,0.5s0.5,0.8,0.5,1.3v2
		c0,0.2,0.1,0.4,0.2,0.5c0.1,0.1,0.2,0.2,0.5,0.2h0.3v0.6c-0.2,0.1-0.4,0.1-0.6,0.1c-0.2,0-0.5-0.1-0.6-0.2
		c-0.2-0.2-0.2-0.3-0.3-0.5c-0.4,0.5-0.9,0.8-1.7,0.8c-0.5,0-0.9-0.2-1.2-0.4c-0.3-0.3-0.5-0.6-0.5-1c0-0.5,0.2-0.8,0.5-1.1
		c0.3-0.2,0.8-0.5,1.3-0.5l1.5-0.2v-0.2c0-0.4-0.1-0.6-0.3-0.8c-0.2-0.2-0.5-0.3-0.8-0.3s-0.6,0.1-0.8,0.3c-0.2,0.2-0.3,0.5-0.3,0.8
		L1.5,448.4z M2,450.4c0,0.2,0.1,0.4,0.2,0.5c0.2,0.2,0.4,0.2,0.7,0.2c0.5,0,0.8-0.2,1.1-0.4c0.2-0.2,0.5-0.7,0.5-1.1v-0.4l-1.5,0.2
		c-0.3,0.1-0.6,0.2-0.8,0.3C2.1,449.9,2,450.1,2,450.4L2,450.4z"/>
	<path id="XMLID_38_" d="M10.4,447.5c0.2-0.2,0.4-0.5,0.7-0.6c0.3-0.2,0.6-0.2,0.9-0.2c0.6,0,1.1,0.2,1.5,0.5s0.5,0.9,0.5,1.6v2.8
		h-0.8v-2.9c0-0.5-0.1-0.8-0.3-1.1c-0.2-0.2-0.5-0.4-0.9-0.4c-0.5,0-0.8,0.2-1.1,0.5c-0.2,0.4-0.4,0.8-0.4,1.4v2.4H9.8v-4.9h0.7
		L10.4,447.5z"/>
	<path id="XMLID_35_" d="M17.4,449.2c0-0.7,0.2-1.3,0.6-1.8c0.4-0.5,1-0.8,1.6-0.8c0.4,0,0.7,0.1,1,0.2c0.3,0.2,0.5,0.4,0.7,0.6
		v-2.8h0.8v7h-0.7v-0.8c-0.4,0.6-0.9,0.8-1.7,0.8c-0.7,0-1.2-0.2-1.6-0.8C17.6,450.5,17.4,449.9,17.4,449.2L17.4,449.2z M18.6,450.5
		c0.3,0.4,0.7,0.5,1.1,0.5s0.8-0.2,1.1-0.5c0.3-0.4,0.5-0.8,0.5-1.3c0-0.5-0.2-1-0.5-1.3c-0.3-0.3-0.6-0.5-1.1-0.5
		c-0.5,0-0.8,0.2-1.1,0.5c-0.3,0.4-0.5,0.8-0.5,1.3C18.1,449.8,18.3,450.2,18.6,450.5z"/>
	<path id="XMLID_33_" d="M37.3,451.1c-0.4,0.5-0.9,0.7-1.5,0.7c-1.2,0-1.8-0.7-1.8-2.1v-2.8h0.8v2.8c0,0.5,0.1,0.8,0.3,1.1
		c0.2,0.2,0.5,0.4,0.9,0.4s0.8-0.2,1.1-0.5c0.2-0.3,0.4-0.8,0.4-1.4v-2.4h0.8v4.9h-0.7v-0.6H37.3z"/>
	<path id="XMLID_31_" d="M45.6,449v-0.2c0-0.5-0.1-0.8-0.3-1.1c-0.2-0.2-0.5-0.4-0.8-0.4c-0.5,0-0.8,0.2-1,0.5
		c-0.2,0.4-0.3,0.8-0.3,1.5v2.3h-0.8v-4.9h0.7v0.8c0.1-0.2,0.3-0.5,0.5-0.6c0.3-0.2,0.5-0.3,0.8-0.3c0.5,0,1,0.2,1.3,0.5
		s0.5,0.9,0.5,1.5v0.2L45.6,449z"/>
	<path id="XMLID_28_" d="M54.8,449.2c0,0.7-0.2,1.3-0.6,1.8c-0.5,0.5-1,0.8-1.6,0.8c-0.7,0-1.3-0.3-1.7-0.8v0.8h-0.7v-7h0.8v2.8
		c0.2-0.2,0.4-0.5,0.7-0.6c0.3-0.2,0.6-0.2,1-0.2c0.7,0,1.2,0.2,1.6,0.8C54.5,447.9,54.8,448.5,54.8,449.2L54.8,449.2z M53.5,447.9
		c-0.3-0.4-0.7-0.5-1.1-0.5c-0.5,0-0.8,0.2-1.1,0.5c-0.3,0.4-0.5,0.8-0.5,1.3c0,0.5,0.2,1,0.5,1.3c0.3,0.3,0.7,0.5,1.1,0.5
		c0.5,0,0.8-0.2,1.1-0.5c0.3-0.4,0.5-0.8,0.5-1.3C54,448.6,53.8,448.3,53.5,447.9z"/>
	<path id="XMLID_25_" d="M58.3,448.4v-0.2c0-0.5,0.2-0.8,0.5-1.1s0.8-0.5,1.4-0.5c0.5,0,1,0.2,1.3,0.5s0.5,0.8,0.5,1.3v2
		c0,0.2,0.1,0.4,0.2,0.5c0.1,0.1,0.2,0.2,0.5,0.2h0.3v0.6c-0.2,0.1-0.4,0.1-0.6,0.1c-0.2,0-0.5-0.1-0.6-0.2
		c-0.2-0.2-0.2-0.3-0.3-0.5c-0.4,0.5-0.9,0.8-1.7,0.8c-0.5,0-0.9-0.2-1.2-0.4c-0.3-0.3-0.5-0.6-0.5-1c0-0.5,0.2-0.8,0.5-1.1
		c0.3-0.2,0.8-0.5,1.3-0.5l1.5-0.2v-0.2c0-0.4-0.1-0.6-0.3-0.8c-0.2-0.2-0.5-0.3-0.8-0.3c-0.4,0-0.6,0.1-0.8,0.3
		c-0.2,0.2-0.3,0.5-0.3,0.8L58.3,448.4z M58.8,450.4c0,0.2,0.1,0.4,0.2,0.5c0.2,0.2,0.4,0.2,0.7,0.2c0.5,0,0.8-0.2,1.1-0.4
		c0.2-0.2,0.5-0.6,0.5-1.1v-0.4l-1.5,0.2c-0.3,0.1-0.6,0.2-0.8,0.3C58.9,449.9,58.8,450.1,58.8,450.4L58.8,450.4z"/>
	<path id="XMLID_23_" d="M67.2,447.5c0.2-0.2,0.4-0.5,0.7-0.6c0.3-0.2,0.6-0.2,0.9-0.2c0.6,0,1.1,0.2,1.5,0.5
		c0.3,0.4,0.5,0.9,0.5,1.6v2.8H70v-2.9c0-0.5-0.1-0.8-0.3-1.1c-0.2-0.2-0.5-0.4-0.9-0.4c-0.5,0-0.8,0.2-1.1,0.5
		c-0.2,0.3-0.4,0.8-0.4,1.4v2.4h-0.8v-4.9h0.7L67.2,447.5z"/>
	<path id="XMLID_20_" d="M83.2,449.5c0,0.5,0.2,0.9,0.5,1.2c0.3,0.3,0.7,0.5,1.1,0.5c0.5,0,1-0.2,1.4-0.7l0.5,0.5
		c-0.5,0.6-1.1,0.9-1.9,0.9c-0.7,0-1.3-0.2-1.8-0.7c-0.5-0.5-0.7-1.1-0.7-1.8s0.2-1.4,0.6-1.8c0.4-0.5,0.9-0.8,1.6-0.8
		c0.5,0,0.9,0.2,1.2,0.4c0.3,0.2,0.6,0.5,0.7,0.9c0.2,0.4,0.2,0.8,0.2,1.1v0.3L83.2,449.5z M84.7,447.3c-0.4,0-0.8,0.2-1,0.4
		c-0.2,0.3-0.4,0.6-0.5,1.1h2.8c0-0.5-0.2-0.8-0.4-1.1C85.4,447.4,85.1,447.4,84.7,447.3L84.7,447.3z"/>
	<path id="XMLID_18_" d="M92.3,449.6c-0.5-0.1-0.8-0.2-1.1-0.5c-0.3-0.2-0.4-0.5-0.4-0.9c0-0.5,0.2-0.8,0.5-1.1
		c0.4-0.2,0.8-0.4,1.3-0.4c0.4,0,0.8,0.1,1.1,0.3c0.4,0.2,0.7,0.5,0.8,0.8l-0.5,0.4c-0.4-0.5-0.8-0.8-1.5-0.8
		c-0.3,0-0.5,0.1-0.8,0.2c-0.2,0.2-0.3,0.3-0.3,0.5c0,0.4,0.3,0.6,0.8,0.7l0.9,0.2c0.5,0.1,0.8,0.2,1.1,0.5c0.3,0.2,0.4,0.5,0.4,0.9
		c0,0.5-0.2,0.8-0.6,1.1c-0.4,0.3-0.8,0.4-1.5,0.4c-0.5,0-0.8-0.1-1.2-0.2c-0.4-0.2-0.7-0.4-0.9-0.7l0.6-0.5
		c0.4,0.5,0.8,0.8,1.5,0.8c0.4,0,0.7-0.1,0.9-0.2s0.4-0.3,0.4-0.5c0-0.2-0.1-0.4-0.2-0.5c-0.2-0.2-0.4-0.2-0.6-0.2L92.3,449.6z"/>
	<path id="XMLID_16_" d="M101.4,451.8c-0.5,0-0.8-0.2-1.1-0.5c-0.3-0.3-0.5-0.8-0.5-1.4v-2.5h-1.5v-0.7h1.5v-1.4h0.8v1.4h2.5v0.7
		h-2.5v2.5c0,0.4,0.1,0.7,0.2,0.8c0.2,0.2,0.4,0.3,0.7,0.3c0.2,0,0.5-0.1,0.6-0.2c0.2-0.2,0.2-0.3,0.3-0.5h0.7
		c-0.1,0.4-0.2,0.7-0.5,1C102.2,451.6,101.8,451.8,101.4,451.8L101.4,451.8z"/>
	<path id="XMLID_14_" d="M107.7,447.5c0.2-0.2,0.4-0.5,0.6-0.6c0.3-0.2,0.6-0.2,0.9-0.2c0.6,0,1.1,0.2,1.5,0.5
		c0.3,0.4,0.5,0.9,0.5,1.6v2.8h-0.8v-2.9c0-0.5-0.1-0.8-0.3-1.1c-0.2-0.2-0.5-0.4-0.9-0.4c-0.5,0-0.8,0.2-1.1,0.5
		c-0.2,0.3-0.4,0.8-0.4,1.4v2.4H107v-7h0.8L107.7,447.5z"/>
	<path id="XMLID_11_" d="M115.7,449.5c0,0.5,0.2,0.9,0.5,1.2c0.3,0.3,0.7,0.5,1.1,0.5c0.5,0,1-0.2,1.4-0.7l0.5,0.5
		c-0.5,0.6-1.1,0.9-1.9,0.9c-0.7,0-1.3-0.2-1.8-0.7c-0.5-0.5-0.7-1.1-0.7-1.8s0.2-1.4,0.6-1.8c0.4-0.5,0.9-0.8,1.6-0.8
		c0.5,0,0.9,0.2,1.2,0.4c0.3,0.2,0.6,0.5,0.7,0.9c0.2,0.4,0.2,0.8,0.2,1.1v0.3L115.7,449.5z M117.1,447.3c-0.4,0-0.8,0.2-1,0.4
		c-0.2,0.3-0.4,0.6-0.5,1.1h2.8c0-0.5-0.2-0.8-0.4-1.1C117.9,447.4,117.6,447.4,117.1,447.3L117.1,447.3z"/>
	<path id="XMLID_9_" d="M125.7,451.8c-0.5,0-0.8-0.2-1.1-0.5c-0.3-0.3-0.5-0.8-0.5-1.4v-2.5h-1.5v-0.7h1.5v-1.4h0.8v1.4h2.5v0.7
		h-2.5v2.5c0,0.4,0.1,0.7,0.2,0.8c0.2,0.2,0.4,0.3,0.7,0.3c0.2,0,0.5-0.1,0.6-0.2c0.2-0.2,0.2-0.3,0.3-0.5h0.7
		c-0.1,0.4-0.2,0.7-0.5,1C126.5,451.6,126.2,451.8,125.7,451.8L125.7,451.8z"/>
	<path id="XMLID_6_" d="M133.9,446.8v4.2h1.8v0.7h-4.5V451h1.9v-3.5h-1.9v-0.7H133.9z M132.9,444.6c0.2-0.2,0.4-0.2,0.6-0.2
		s0.4,0.1,0.6,0.2s0.2,0.4,0.2,0.6c0,0.2-0.1,0.4-0.2,0.6c-0.2,0.2-0.4,0.2-0.6,0.2s-0.4-0.1-0.6-0.2c-0.2-0.2-0.2-0.4-0.2-0.6
		C132.7,444.9,132.7,444.7,132.9,444.6z"/>
	<path id="XMLID_4_" d="M143.8,450.2c-0.1,0.5-0.3,0.8-0.7,1.1c-0.4,0.3-0.8,0.5-1.5,0.5c-0.7,0-1.3-0.2-1.8-0.7
		c-0.5-0.5-0.7-1.1-0.7-1.8s0.2-1.4,0.7-1.8s1.1-0.8,1.8-0.8c0.5,0,1,0.2,1.4,0.5s0.6,0.6,0.8,1.1l-0.7,0.2
		c-0.1-0.3-0.3-0.5-0.5-0.8c-0.2-0.2-0.5-0.3-0.9-0.3c-0.5,0-0.9,0.2-1.2,0.5s-0.5,0.8-0.5,1.4c0,0.5,0.2,1,0.5,1.4
		c0.3,0.4,0.7,0.5,1.2,0.5c0.8,0,1.3-0.4,1.5-1.1L143.8,450.2z"/>
	<path id="XMLID_2_" d="M149,449.6c-0.5-0.1-0.8-0.2-1.1-0.5c-0.3-0.2-0.4-0.5-0.4-0.9c0-0.5,0.2-0.8,0.5-1.1
		c0.4-0.2,0.8-0.4,1.3-0.4c0.4,0,0.8,0.1,1.1,0.3c0.4,0.2,0.7,0.5,0.8,0.8l-0.6,0.4c-0.4-0.5-0.8-0.8-1.5-0.8
		c-0.3,0-0.5,0.1-0.8,0.2c-0.2,0.2-0.3,0.3-0.3,0.5c0,0.4,0.3,0.6,0.8,0.7l0.9,0.2c0.5,0.1,0.8,0.2,1.1,0.5c0.3,0.2,0.4,0.5,0.4,0.9
		c0,0.5-0.2,0.8-0.6,1.1s-0.8,0.4-1.5,0.4c-0.5,0-0.8-0.1-1.2-0.2c-0.4-0.2-0.7-0.4-0.9-0.7l0.6-0.5c0.4,0.5,0.8,0.8,1.5,0.8
		c0.4,0,0.7-0.1,0.9-0.2c0.2-0.2,0.4-0.3,0.4-0.5c0-0.2-0.1-0.4-0.2-0.5c-0.2-0.2-0.4-0.2-0.6-0.2L149,449.6z"/>
</g>
<g id="XMLID_128_">
</g>
<g id="XMLID_129_">
</g>
<g id="XMLID_130_">
</g>
<g id="XMLID_131_">
</g>
<g id="XMLID_132_">
</g>
<g id="XMLID_133_">
</g>
</svg>
