<?xml version="1.0" encoding="utf-8"?>
<!-- Generator: Adobe Illustrator 19.0.0, SVG Export Plug-In . SVG Version: 6.00 Build 0)  -->
<svg version="1.1" xmlns="http://www.w3.org/2000/svg" xmlns:xlink="http://www.w3.org/1999/xlink" x="0px" y="0px"
	 viewBox="0 0 960 560" enable-background="new 0 0 960 560" xml:space="preserve">
<g id="Texte">
	<g id="XMLID_162_">
		<g id="XMLID_38_">
			<path id="XMLID_41_" fill="#FFFFFF" d="M430.4,206.3l-4.2,13.3l-4.2-13.3h-4.6l6.1,18.1h5l6.2-18.1H430.4z"/>
			<path id="XMLID_45_" fill="#FFFFFF" d="M436.1,206.3v3.3h4.1v-3.3H436.1z M436.1,210.9v13.5h4.2v-13.5H436.1z"/>
			<path id="XMLID_58_" fill="#FFFFFF" d="M452.3,219.4c-0.2,0.6-0.4,1.1-0.9,1.5c-0.5,0.4-1.1,0.6-1.8,0.6c-0.4,0-0.7-0.1-1.1-0.2
				c-0.4-0.1-0.7-0.4-0.9-0.7c-0.3-0.3-0.5-0.7-0.7-1.2c-0.2-0.5-0.3-1.1-0.3-1.8c0-0.7,0.1-1.3,0.3-1.8c0.2-0.5,0.4-0.9,0.7-1.2
				c0.3-0.3,0.6-0.5,0.9-0.7c0.3-0.1,0.7-0.2,1.1-0.2c0.6,0,1.1,0.2,1.6,0.5c0.5,0.3,0.8,0.9,1,1.7h3.8c-0.2-1-0.5-1.9-1-2.5
				c-0.5-0.7-1-1.2-1.6-1.6c-0.6-0.4-1.3-0.7-2-0.9c-0.7-0.2-1.4-0.3-2.1-0.3c-1,0-1.9,0.2-2.8,0.5c-0.8,0.3-1.6,0.8-2.2,1.4
				c-0.6,0.6-1.1,1.4-1.4,2.2c-0.3,0.9-0.5,1.8-0.5,2.9c0,1.1,0.2,2,0.5,2.9c0.3,0.9,0.7,1.6,1.3,2.3c0.6,0.6,1.3,1.1,2.2,1.5
				c0.9,0.3,1.8,0.5,2.9,0.5c0.7,0,1.4-0.1,2.1-0.3c0.7-0.2,1.4-0.5,2-0.9c0.6-0.4,1.2-1,1.7-1.6c0.5-0.7,0.8-1.5,1.1-2.5H452.3z"/>
			<path id="XMLID_60_" fill="#FFFFFF" d="M465.9,213.9v-2.9H463v-3.7h-4.1v3.7h-2.1v2.9h2.1v6.8c0,0.8,0.1,1.4,0.2,1.9
				c0.1,0.5,0.4,0.9,0.8,1.2c0.3,0.3,0.8,0.5,1.4,0.6s1.3,0.2,2.1,0.2h2.6v-3h-1.2c-0.7,0-1.2-0.1-1.4-0.3c-0.3-0.2-0.4-0.6-0.4-1.2
				v-6H465.9z"/>
			<path id="XMLID_62_" fill="#FFFFFF" d="M481,214.5c-0.4-0.9-0.9-1.6-1.6-2.2c-0.7-0.6-1.4-1-2.3-1.3c-0.9-0.3-1.8-0.4-2.7-0.4
				c-0.9,0-1.8,0.1-2.7,0.4c-0.9,0.3-1.6,0.7-2.3,1.3c-0.7,0.6-1.2,1.3-1.6,2.2c-0.4,0.9-0.6,1.9-0.6,3.2c0,1.2,0.2,2.3,0.6,3.2
				c0.4,0.9,0.9,1.6,1.6,2.2c0.7,0.6,1.4,1,2.3,1.3c0.9,0.3,1.8,0.4,2.7,0.4c0.9,0,1.8-0.1,2.7-0.4c0.9-0.3,1.6-0.7,2.3-1.3
				c0.7-0.6,1.2-1.3,1.6-2.2c0.4-0.9,0.6-1.9,0.6-3.2C481.6,216.4,481.4,215.3,481,214.5z M477.2,219.4c-0.2,0.5-0.3,0.9-0.6,1.2
				c-0.3,0.3-0.6,0.5-0.9,0.7c-0.4,0.1-0.8,0.2-1.2,0.2c-0.4,0-0.8-0.1-1.2-0.2c-0.4-0.1-0.7-0.4-0.9-0.7c-0.3-0.3-0.5-0.7-0.6-1.2
				c-0.1-0.5-0.2-1.1-0.2-1.8c0-0.7,0.1-1.3,0.2-1.8c0.2-0.5,0.4-0.9,0.6-1.2s0.6-0.5,0.9-0.7c0.4-0.1,0.7-0.2,1.1-0.2
				c0.4,0,0.8,0.1,1.1,0.2c0.4,0.1,0.7,0.3,0.9,0.7s0.5,0.7,0.6,1.2s0.2,1.1,0.2,1.8C477.4,218.3,477.3,218.9,477.2,219.4z"/>
			<path id="XMLID_65_" fill="#FFFFFF" d="M491.7,210.8h-0.3c-1,0-1.7,0.3-2.3,0.8c-0.6,0.5-1,1.1-1.4,1.9v-2.5h-4v13.5h4.1v-6.8
				c0-1.1,0.3-1.8,0.8-2.2c0.5-0.4,1.3-0.6,2.3-0.6c0.2,0,0.4,0,0.5,0c0.2,0,0.4,0,0.6,0.1v-4C491.9,210.8,491.8,210.8,491.7,210.8z
				"/>
		</g>
		<g id="XMLID_48_">
			<path id="XMLID_49_" fill="#FFFFFF" d="M410.8,299.8l-3.6,13l-3.5-13h-6.8v18.1h4.1v-14.5l4.1,14.5h4l4-14.5v14.5h4.1v-18.1
				H410.8z"/>
			<path id="XMLID_68_" fill="#FFFFFF" d="M433,316.8c0-0.4-0.1-0.9-0.1-1.4c0-0.5,0-1,0-1.5v-1.4l0-2.9c0-1-0.1-1.9-0.4-2.6
				c-0.3-0.7-0.6-1.3-1.2-1.8c-0.5-0.5-1.2-0.8-1.9-1c-0.8-0.2-1.6-0.3-2.6-0.3c-1,0-1.9,0.1-2.7,0.4c-0.8,0.3-1.5,0.6-2,1
				c-0.6,0.4-1,1-1.3,1.5c-0.3,0.6-0.5,1.2-0.5,1.8h3.8c0.1-0.6,0.3-1.1,0.8-1.5c0.4-0.3,1-0.5,1.6-0.5c0.8,0,1.3,0.2,1.7,0.5
				c0.4,0.3,0.6,0.9,0.6,1.7v0.5c-1.3,0.1-2.5,0.3-3.6,0.4c-1.1,0.2-2,0.5-2.8,0.9c-0.8,0.4-1.4,0.8-1.8,1.4
				c-0.4,0.6-0.7,1.3-0.7,2.1c0,0.6,0.1,1.2,0.4,1.6c0.2,0.5,0.6,0.9,1,1.2c0.4,0.3,0.9,0.6,1.5,0.8c0.6,0.2,1.2,0.3,1.8,0.3
				c1,0,1.8-0.1,2.6-0.4c0.8-0.3,1.4-0.8,1.9-1.5l0,1.6h4C433.1,317.6,433,317.2,433,316.8z M428.9,312.2c0,0.6-0.1,1.1-0.2,1.5
				c-0.1,0.4-0.4,0.7-0.6,1c-0.3,0.2-0.6,0.4-0.9,0.5c-0.3,0.1-0.7,0.1-1.1,0.1c-0.5,0-1-0.1-1.4-0.4c-0.4-0.3-0.5-0.6-0.5-1.1
				c0-0.3,0.1-0.6,0.3-0.9c0.2-0.2,0.6-0.4,1-0.6c0.4-0.2,0.9-0.3,1.5-0.4c0.6-0.1,1.3-0.2,2-0.2V312.2z"/>
			<path id="XMLID_71_" fill="#FFFFFF" d="M444.7,304.4v1.8c-0.2-0.4-0.5-0.7-0.8-1c-0.3-0.3-0.7-0.5-1-0.7
				c-0.4-0.2-0.8-0.3-1.2-0.4c-0.4-0.1-0.8-0.1-1.1-0.1c-0.9,0-1.7,0.1-2.4,0.4c-0.7,0.3-1.3,0.7-1.9,1.3c-0.5,0.6-0.9,1.3-1.2,2.1
				c-0.3,0.8-0.4,1.8-0.4,2.8s0.2,2,0.4,2.8c0.3,0.8,0.7,1.5,1.2,2.1c0.5,0.6,1.1,1,1.9,1.3c0.7,0.3,1.5,0.4,2.4,0.4
				c0.4,0,0.8,0,1.1-0.1c0.4-0.1,0.8-0.2,1.2-0.4c0.4-0.2,0.7-0.4,1-0.7c0.3-0.3,0.6-0.6,0.8-0.9v1.6c0,0.9-0.2,1.6-0.6,2.1
				c-0.4,0.5-1.2,0.7-2.2,0.7c-0.8,0-1.4-0.1-1.8-0.4c-0.5-0.3-0.8-0.7-1-1.3h-3.9c0.1,0.6,0.3,1.2,0.7,1.8s0.8,1.1,1.4,1.5
				c0.6,0.4,1.3,0.8,2,1s1.7,0.4,2.7,0.4c0.9,0,1.8-0.1,2.7-0.3c0.8-0.2,1.6-0.6,2.2-1.1c0.6-0.5,1.1-1.2,1.5-2
				c0.4-0.8,0.6-1.9,0.6-3.1v-11.6H444.7z M444.7,312.4c-0.2,0.4-0.4,0.8-0.6,1.1c-0.3,0.3-0.6,0.5-0.9,0.6
				c-0.4,0.1-0.8,0.2-1.2,0.2c-0.4,0-0.8-0.1-1.2-0.2c-0.4-0.1-0.7-0.3-0.9-0.6c-0.3-0.3-0.5-0.7-0.7-1.1c-0.2-0.4-0.2-1-0.2-1.6
				c0-0.6,0.1-1.1,0.2-1.5c0.2-0.4,0.4-0.8,0.7-1.1c0.3-0.3,0.6-0.5,0.9-0.6c0.4-0.1,0.8-0.2,1.2-0.2c0.4,0,0.8,0.1,1.2,0.2
				c0.4,0.1,0.7,0.3,0.9,0.6c0.3,0.3,0.5,0.6,0.6,1c0.2,0.4,0.2,1,0.2,1.7C444.9,311.4,444.8,311.9,444.7,312.4z"/>
			<path id="XMLID_74_" fill="#FFFFFF" d="M451.4,309.5v3.5h8.8v-3.5H451.4z"/>
			<path id="XMLID_76_" fill="#FFFFFF" d="M403.1,337.4c-0.2-0.7-0.4-1.3-0.8-1.8c-0.4-0.5-0.8-0.8-1.4-1.1
				c-0.6-0.3-1.3-0.4-2.2-0.4c-0.5,0-1,0.1-1.5,0.2c-0.4,0.1-0.8,0.3-1.2,0.5c-0.3,0.2-0.7,0.4-0.9,0.7s-0.5,0.5-0.6,0.8v-1.8h-4.1
				v13.4h4.1V341c0-1.3,0.2-2.2,0.6-2.8c0.4-0.6,1-0.9,1.9-0.9c0.5,0,0.9,0.1,1.2,0.3c0.3,0.2,0.5,0.4,0.6,0.8
				c0.1,0.3,0.2,0.7,0.3,1.1c0,0.4,0,0.9,0,1.4v7h4.1v-8.1C403.3,338.9,403.2,338.1,403.1,337.4z"/>
			<path id="XMLID_88_" fill="#FFFFFF" d="M406,329.8v3.3h4.1v-3.3H406z M406,334.4v13.4h4.1v-13.4H406z"/>
			<path id="XMLID_91_" fill="#FFFFFF" d="M426,337.9c-0.4-0.9-0.9-1.6-1.6-2.2c-0.7-0.6-1.4-1-2.3-1.3c-0.9-0.3-1.8-0.4-2.7-0.4
				c-0.9,0-1.8,0.1-2.7,0.4c-0.9,0.3-1.6,0.7-2.3,1.3c-0.7,0.6-1.2,1.3-1.6,2.2c-0.4,0.9-0.6,1.9-0.6,3.2c0,1.2,0.2,2.3,0.6,3.2
				c0.4,0.9,0.9,1.6,1.6,2.2c0.7,0.6,1.4,1,2.3,1.3c0.9,0.3,1.8,0.4,2.7,0.4c0.9,0,1.8-0.1,2.7-0.4c0.9-0.3,1.6-0.7,2.3-1.3
				c0.7-0.6,1.2-1.3,1.6-2.2c0.4-0.9,0.6-1.9,0.6-3.2C426.6,339.9,426.4,338.8,426,337.9z M422.1,342.9c-0.2,0.5-0.3,0.9-0.6,1.2
				s-0.6,0.5-0.9,0.7c-0.4,0.1-0.8,0.2-1.2,0.2c-0.4,0-0.8-0.1-1.2-0.2c-0.4-0.1-0.7-0.4-0.9-0.7s-0.5-0.7-0.6-1.2
				c-0.1-0.5-0.2-1.1-0.2-1.8c0-0.7,0.1-1.3,0.2-1.8c0.2-0.5,0.4-0.9,0.6-1.2s0.6-0.5,0.9-0.7c0.4-0.1,0.7-0.2,1.1-0.2
				c0.4,0,0.8,0.1,1.1,0.2c0.4,0.1,0.7,0.4,0.9,0.7s0.5,0.7,0.6,1.2s0.2,1.1,0.2,1.8C422.4,341.8,422.3,342.4,422.1,342.9z"/>
			<path id="XMLID_94_" fill="#FFFFFF" d="M441.3,337.4c-0.2-0.7-0.4-1.3-0.8-1.8c-0.4-0.5-0.8-0.8-1.4-1.1
				c-0.6-0.3-1.3-0.4-2.2-0.4c-0.5,0-1,0.1-1.5,0.2c-0.5,0.1-0.8,0.3-1.2,0.5c-0.3,0.2-0.7,0.4-0.9,0.7c-0.3,0.3-0.5,0.5-0.6,0.8
				v-1.8h-4.1v13.4h4.1V341c0-1.3,0.2-2.2,0.6-2.8c0.4-0.6,1-0.9,1.9-0.9c0.5,0,0.9,0.1,1.2,0.3c0.3,0.2,0.5,0.4,0.6,0.8
				c0.1,0.3,0.2,0.7,0.3,1.1c0,0.4,0,0.9,0,1.4v7h4.1v-8.1C441.5,338.9,441.5,338.1,441.3,337.4z"/>
			<path id="XMLID_134_" fill="#FFFFFF" d="M452,337.3v-2.9H449v-3.7h-4.1v3.7h-2.1v2.9h2.1v6.8c0,0.8,0.1,1.4,0.2,1.9
				s0.4,0.9,0.8,1.1c0.3,0.3,0.8,0.5,1.4,0.6c0.6,0.1,1.3,0.2,2.1,0.2h2.6v-3h-1.2c-0.7,0-1.2-0.1-1.4-0.3s-0.4-0.6-0.4-1.2v-6H452z
				"/>
		</g>
	</g>
</g>
<g id="M">
	<path id="XMLID_54_" fill="#FFFFFF" d="M461.4,348l4.7-18.9c0,8.7,9.6,18.9,18.9,18.9L461.4,348z"/>
	<polygon id="XMLID_52_" fill="#FFFFFF" points="554.2,315.3 546,348 522.4,348 490.6,239 490.6,239 498.8,206.3 522.4,206.3 	"/>
	<polygon id="XMLID_50_" fill="#FFFFFF" points="573.3,239 573.3,239 581.5,206.3 605.1,206.3 646.4,348 605.1,348 	"/>
	<g id="XMLID_44_">
	</g>
</g>
<g id="victor">
	<path id="XMLID_55_" fill="#FFFFFF" d="M414.1,206.3l-4.7,18.9c0-8.7-9.6-18.9-18.9-18.9H414.1z"/>
	<polygon id="XMLID_53_" fill="#FFFFFF" points="386.9,315.3 386.9,315.3 378.7,348 355.1,348 313.7,206.3 355.1,206.3 	"/>
	<g id="XMLID_1_">
	</g>
	<g id="XMLID_2_">
	</g>
	<g id="XMLID_3_">
	</g>
	<g id="XMLID_4_">
	</g>
	<g id="XMLID_5_">
	</g>
	<g id="XMLID_6_">
	</g>
	<g id="XMLID_7_">
	</g>
	<g id="XMLID_8_">
	</g>
	<g id="XMLID_9_">
	</g>
	<g id="XMLID_10_">
	</g>
	<g id="XMLID_11_">
	</g>
	<g id="XMLID_12_">
	</g>
	<g id="XMLID_13_">
	</g>
	<g id="XMLID_14_">
	</g>
	<g id="XMLID_15_">
	</g>
</g>
</svg>
