<?xml version="1.0" encoding="utf-8"?>
<!-- Generator: Adobe Illustrator 19.0.0, SVG Export Plug-In . SVG Version: 6.00 Build 0)  -->
<svg version="1.1" id="Calque_1" xmlns="http://www.w3.org/2000/svg" xmlns:xlink="http://www.w3.org/1999/xlink" x="0px" y="0px"
	 viewBox="0 0 595.3 338.1" enable-background="new 0 0 595.3 338.1" xml:space="preserve">
<polygon id="XMLID_43_" points="152.5,246.3 152.5,246.3 136,312.6 88.1,312.6 4.2,25.2 88.1,25.2 "/>
<polygon id="XMLID_40_" points="404,246.3 387.4,312.6 339.5,312.6 275,91.6 275,91.5 291.6,25.2 339.5,25.2 "/>
<polygon id="XMLID_39_" points="442.7,91.6 442.7,91.5 459.3,25.2 507.2,25.2 591,312.6 507.2,312.6 "/>
<path id="XMLID_116_" d="M207.8,25.2l-9.6,38.3c0-17.6-19.4-38.3-38.3-38.3H207.8z"/>
<path id="XMLID_33_" d="M219.8,312.6l9.6-38.3c0,17.6,19.4,38.3,38.3,38.3H219.8z"/>
<g id="XMLID_14_">
</g>
<g id="XMLID_15_">
</g>
<g id="XMLID_16_">
</g>
<g id="XMLID_17_">
</g>
<g id="XMLID_18_">
</g>
<g id="XMLID_19_">
</g>
</svg>
