<?xml version="1.0" encoding="utf-8"?>
<!-- Generator: Adobe Illustrator 19.0.0, SVG Export Plug-In . SVG Version: 6.00 Build 0)  -->
<svg version="1.1" id="Calque_1" xmlns="http://www.w3.org/2000/svg" xmlns:xlink="http://www.w3.org/1999/xlink" x="0px" y="0px"
	 viewBox="0 0 310.4 137.3" enable-background="new 0 0 310.4 137.3" xml:space="preserve">
<g>
	<polygon points="22.2,66.8 22.1,66.9 3.1,66.9 3.1,66.8 	"/>
</g>
<path d="M81,0L81,0l14.7,0v0H81z"/>
<polygon points="40.7,31.3 36.6,39.1 36.6,39.1 40.7,31.3 "/>
<line fill="none" x1="22.2" y1="66.8" x2="22.1" y2="66.9"/>
<line fill="none" x1="47.9" y1="17.6" x2="40.7" y2="31.3"/>
<g>
	<polygon points="105.5,137.1 105.5,137.2 86.4,137.2 87,136.2 87,137.1 	"/>
</g>
<line fill="none" x1="105.5" y1="137.1" x2="105.5" y2="137.2"/>
<line fill="none" x1="131.2" y1="87.9" x2="124.1" y2="101.6"/>
<line fill="none" x1="266.4" y1="31.5" x2="259.2" y2="17.9"/>
<g>
	<path d="M166.9,21.2c0,0.2,0,0.4,0,0.6v-1.2C166.9,20.7,166.9,20.9,166.9,21.2z"/>
</g>
<g>
	<path d="M31.3,66.8V53.5h-2.2l0.8-1.5l4.1-7.8h13.9v9.4h-8.3v13.3h31.3V53.5h-8.3V13.3h8.3V0H39.5L10.3,53.5H0v13.3H31.3z
		 M47.9,17.6v13.7h-7.2l-4.1,7.8h0l4.1-7.8L47.9,17.6z"/>
	<polygon points="99,83.1 80.6,137.1 67.9,137.1 52.8,93.4 37.7,137.1 24.9,137.1 6.6,83.1 0.1,83.1 0.1,69.8 31.4,69.8 31.4,83.1 
		21.9,83.1 31.7,115.1 46.7,69.7 59.3,69.7 74.2,115.1 84,83.1 74.4,83.1 74.4,69.8 105.7,69.8 105.7,83.1 	"/>
	<polygon points="81,66.8 73,66.8 73,53.5 81,53.5 81,13.3 73,13.3 73,0 104.3,0 104.3,13.3 95.7,13.3 95.7,53.5 131.8,53.5 
		131.8,46.8 146.5,46.8 146.5,67 131.8,67 131.8,66.8 81,66.8 	"/>
	<path d="M128.8,43h11.2c14.8,0,26.6-6.9,27-21.9c0-3-0.6-5.6-1.5-8h3.7V54h-8.2v13.1h31.4V54h-8.5V40.1h27.1V54H203v13.1h31.4V54
		h-8.8V13.1h8.2V0h-31.4v13.1h8.5v13.4h-27.1V13.1h8.9V0h-31.4v6.8C156.9,2.5,150,0,141.3,0h-35.5v13.1h8.2v25.2h-8.2v13.1h22.9V43z
		 M140.1,13.3c7.3,0,11.9,3.5,11.9,7.3v1.6c0,3.8-4.3,7.3-11.6,7.3h-11.6V13.3H140.1z"/>
	<path d="M145.9,84.1h8.1V70.3h-31.2l-29.1,53.5H87v13.3h27.7v-13.3h-2.2l0.8-1.5l4.1-7.8h13.9v9.4h-8.3v13.3h31.3v-13.3h-8.3V84.1z
		 M124,101.6l7.2-13.7v13.7H124z"/>
	<polygon points="201.1,70.5 232.4,70.5 232.4,83.8 223.8,83.8 223.8,137.3 211.3,137.3 179,94.9 179,124 187.6,124 187.6,137.3 
		156.3,137.3 156.3,124 164.4,124 164.4,83.8 156.3,83.8 156.3,70.5 177.6,70.5 177.6,70.5 178,70.5 209.3,111.7 209.3,83.8 
		201.1,83.8 	"/>
	<polygon points="310.4,70.5 310.4,83.8 301.8,83.8 301.8,137.3 289.3,137.3 256.9,94.9 256.9,124 265.5,124 265.5,137.3 
		234.2,137.3 234.2,124 242.4,124 242.4,83.8 234.2,83.8 234.2,70.5 255.6,70.5 255.6,70.5 256,70.5 287.3,111.7 287.3,83.8 
		279.1,83.8 279.1,70.5 	"/>
	<path d="M267.5,53.8h-8.3v-9.4h13.9l4.1,7.8l0.8,1.5h-2.2V67h9.1l0,0.1h19l0-0.1h3.1V53.8h-10.3L267.6,0.3h-31.4v13h8.3v40.5h-8.3
		V67h31.3V53.8z M266.4,31.5h-7.2V17.8L266.4,31.5z"/>
</g>
<g>
	<path d="M164.4,137.3L164.4,137.3l14.5,0v0H164.4z"/>
</g>
<g>
	<path d="M242.4,137.3L242.4,137.3l14.5,0v0H242.4z"/>
</g>
<g>
</g>
<g>
</g>
<g>
</g>
<g>
</g>
<g>
</g>
<g>
</g>
</svg>
