<?xml version="1.0" encoding="utf-8"?>
<!-- Generator: Adobe Illustrator 19.0.0, SVG Export Plug-In . SVG Version: 6.00 Build 0)  -->
<svg version="1.1" id="Calque_1" xmlns="http://www.w3.org/2000/svg" xmlns:xlink="http://www.w3.org/1999/xlink" x="0px" y="0px"
	 viewBox="0 0 302.2 123.5" enable-background="new 0 0 302.2 123.5" xml:space="preserve">
<path fill="#9D9D9C" d="M223.4,79.2c15.7-16.9,44.8-27.7,44.8-55.3c0-13.3-6.7-22-19.7-22c-10.7,0-16.8,5.7-19.9,12.8
	c6.7,1.2,11.9,7.3,11.9,14.9c0,8.5-6.4,15-14.5,15c-8.8,0-14.4-7.6-14.4-15.6c0-13.1,15-29.1,44.6-29.1c23,0,42.9,9.7,42.9,29.6
	c0,31.6-51,25.4-75.8,52.1c-2.6,2.9-4.5,5.9-5.7,9c3.8-8.3,12.6-13.3,27.5-13.3c14.2,0,25.4,4.5,37,4.5c10.4,0,17.5-3.5,17.5-14.5
	c0-1.9-0.2-4.2-0.7-6.6h1c1.2,5,2.2,12.1,2.2,19.2c0,15-5,31.1-21.4,31.1c-21.6,0-30.4-27.3-49.3-27.3c-10,0-15.2,7.6-15,17.5
	c0,2.4,0.3,5.4,1,7.8h-1.6C213.3,95.5,215.2,87.9,223.4,79.2z"/>
<path fill="#9D9D9C" d="M32.4,70.1c9,0,12.9-9.2,17.3-19.2l16.1-36.3h0.6l21.4,43.9c2.6,5.4,6.3,11.6,11.6,11.6v0.5H65.7v-0.5
	c6.6,0,7.4-5.8,4.7-11.6l-2.7-5.7H49.9l-0.5,1.3c-3.2,9.2-1.1,16.1,8.8,16.1v0.5H32.4V70.1z M67.2,51.9l-8.7-18.5l-8.2,18.5H67.2z"
	/>
<path fill="#9D9D9C" d="M98.1,70.1c4.8,0,5.4-3.1,5.4-7.5v-42c0-4.5-0.5-7.5-5.4-7.5v-0.5l19.7-1.8v51.9c0,4.5,0.5,7.5,5.4,7.5v0.5
	h-25V70.1z"/>
<path fill="#9D9D9C" d="M125.2,84.8c4.8,0,5.4-3.3,5.4-7.8V42.6c0-4.5-0.5-7.8-5.4-7.8v-0.5l19.2-1.8v5.7c2.5-3,6.4-5.8,12.1-5.8
	c10.4,0,16.3,9.3,16.3,19.5c0,10.7-6.6,19.8-19.1,19.8c-4.2,0-7.1-1-8.9-2.1v8.1c0,4.5,1.6,7.1,6.3,7.1v0.5h-25.9V84.8z M144.8,38.5
	v24.9c0,5.3,3.1,7.4,5.7,7.4c6,0,7.4-11,7.4-18.3c0-10.2-2.7-16.4-7.9-16.4C147.7,36.1,146,37.3,144.8,38.5z"/>
<path fill="#9D9D9C" d="M176.9,70.1c4.8,0,5.4-3.1,5.4-7.5v-42c0-4.5-0.5-7.5-5.4-7.5v-0.5l19.7-1.8v28.5c3.7-3.7,8.6-6.9,14.4-6.9
	c6.1,0,11.3,3.5,11.3,12.3v17.9c0,4.5,0.5,7.5,5.4,7.5v0.5h-24.1v-0.5c3.8,0,4.5-3.1,4.5-7.5V43c0-4.4-2-6.2-4.8-6.2
	c-2.7,0-4.9,1.5-6.7,3.2v22.5c0,4.5,0.5,7.5,5.4,7.5v0.5h-25V70.1z"/>
<path fill="#9D9D9C" d="M0,122.3c4.5,0,5.8-1.4,5.8-7.3V86c0-5.9-1.3-7.3-5.8-7.3v-0.4h25.4v0.4c-4.5,0-7.2,1.2-7.2,8.1v35.5h4.3
	c9.8,0,15.8-7.6,17.7-15.8l0.3,0.1l-1.2,16.3H0V122.3z"/>
<path fill="#9D9D9C" d="M44.6,115c0-6.1,5.7-8.4,12.7-8.4c2.7,0,5.6,0.4,7.8,0.9v-7.6c0-4.1-0.9-7.6-5.5-7.6c-3,0-4.9,1.5-6.1,3.2
	c1.9,0.9,3.2,3,3.2,5.1c0,3-2.4,5.3-5.5,5.3c-3.4,0-5.2-2.8-5.2-5.4c0-4.8,5.8-8.5,14.3-8.5c7.6,0,16.3,3,16.3,11.7V119
	c0,1.4,0.7,2,1.9,2c1.8,0,3.5-1.8,4.6-3.5l0.4,0.2c-2,2.9-4.5,5.7-9.5,5.7c-4.5,0-7.1-2.2-8.1-5c-1.9,2.7-5.1,5.1-10.6,5.1
	C48.9,123.5,44.6,120.3,44.6,115z M65.1,118.4v-10.3c-1.1-0.3-2.4-0.6-3.5-0.6c-3.7,0-5.3,2.6-5.3,6.9c0,3.5,1.1,6.7,4.2,6.7
	C62,121.1,63.6,120.3,65.1,118.4z"/>
<path fill="#9D9D9C" d="M86.6,113.6v-13.5c0-3.6-0.4-6.3-4.3-6.3v-0.4L98.1,92v22.9c0,3.5,1.6,5,3.8,5c2.1,0,3.9-1.2,5.4-2.6v-17.1
	c0-3.6-0.6-6.3-3.6-6.3v-0.4l15-1.4v24c0,3.6,0.4,6.3,4.3,6.3v0.4h-15.4v-5.1c-3,3.2-7.1,5.9-12,5.9
	C90.8,123.5,86.6,120.7,86.6,113.6z"/>
<path fill="#9D9D9C" d="M125.2,122.3c3.9,0,4.3-2.7,4.3-6.3v-15.8c0-3.6-0.4-6.3-4.3-6.3v-0.4l15.4-1.4v10.3
	c1.4-5.3,4.6-10.4,9.7-10.4c4.1,0,6.2,3.2,6.2,6.1c0,3.3-2.6,6-5.8,6s-6-2.6-5.8-6.4c-1.6,0.9-3,2.4-3.9,4.8V116c0,4,1.2,6.3,5,6.3
	v0.4h-20.8V122.3z"/>
<path fill="#9D9D9C" d="M158.4,107.8c0-8.7,6.7-15.8,17.1-15.8c9.2,0,15.1,5.6,15.5,14.4h-20.9c0.1,9.5,3.7,15.3,10.3,15.3
	c4.7,0,7.9-3,10.1-5.6l0.4,0.3c-2.6,3.2-6.8,7.1-15.1,7.1C164.3,123.5,158.4,116,158.4,107.8z M170.1,105.8h9.7
	c0-3,0.1-13.5-4.5-13.5C171.4,92.3,170.1,100.4,170.1,105.8z"/>
<path fill="#9D9D9C" d="M194.5,122.3c3.9,0,4.3-2.4,4.3-6V99.9c0-3.6-0.4-6-4.3-6v-0.4l15.4-1.4v5.9c3-3.1,7.1-5.9,12-5.9
	c4.9,0,9.1,2.8,9.1,9.9v14.4c0,3.6,0.4,6,4.3,6v0.4h-19.4v-0.4c3,0,3.6-2.4,3.6-6v-15.7c0-3.5-1.6-5-3.8-5c-2.2,0-4,1.2-5.4,2.6
	v18.1c0,3.6,0.6,6,3.6,6v0.4h-19.4V122.3z"/>
<g>
</g>
<g>
</g>
<g>
</g>
<g>
</g>
<g>
</g>
<g>
</g>
<g>
</g>
</svg>
